<?xml version="1.0" standalone="no"?>
<!DOCTYPE svg PUBLIC "-//W3C//DTD SVG 1.1//EN" "http://www.w3.org/Graphics/SVG/1.1/DTD/svg11.dtd">
<svg xmlns="http://www.w3.org/2000/svg">
<metadata>Generated by Fontastic.me</metadata>
<defs>
<font horiz-adv-x="512">
<font-face  units-per-em="512" ascent="480" descent="-32"/>
<missing-glyph horiz-adv-x="512" />

<glyph glyph-name="broadcast" unicode="&#97;" d="M256 416c71 0 128-58 128-128 0-35-14-66-36-89l-8-47c46 28 76 78 76 136 0 88-71 160-160 160-88 0-160-72-160-160 0-58 31-108 76-136l-8 47c-22 23-36 54-36 89 0 71 57 128 128 128z m-32-160c-18 0-32-15-32-32l0-64c0-18 15-32 32-32l0-128 64 0 0 128c17 0 32 14 32 32l0 64c0 17-14 32-32 32-18 0-32 0-32 0 0 0-14 0-32 0z m96 64c0 35-28 64-64 64-35 0-64-29-64-64 0-36 29-64 64-64 36 0 64 28 64 64z m-64 192c-123 0-224-101-224-224 0-99 64-182 153-212l-6 36c-68 30-115 97-115 176 0 106 86 192 192 192 106 0 192-86 192-192 0-79-47-146-114-176l-6-36c88 30 152 113 152 212 0 123-100 224-224 224z"/>
<glyph glyph-name="checklist" unicode="&#98;" d="M445 254l-25 25c-3 3-9 3-12 0l-52-53-60-60-47 47c-3 3-8 3-12 0l-24-25c-4-4-4-9 0-12l52-52 9-9 16-16c3-4 8-4 12 0l24 25 119 118c3 3 3 9 0 12z m-266-32l25 24c21 22 58 22 79 0l13-12 57 54 0 160-288 0 0-352 160 0-46 46c-22 22-22 58 0 80z m-18 194l160 0 0-32-160 0z m0-64l160 0 0-32-160 0z m-32-96l-32 0 0 32 32 0z m0 64l-32 0 0 32 32 0z m0 64l-32 0 0 32 32 0z m32-96l32 0 0-32-32 0z"/>
<glyph glyph-name="radio-tower" unicode="&#100;" d="M153 317c8 8 8 21 0 29-10 11-15 24-15 38 0 14 5 28 15 38 8 8 8 22 0 30-4 4-9 6-14 6-5 0-10-2-14-6-18-19-28-43-28-68 0-24 10-49 28-67 8-9 20-9 28 0z m-78 178c-5 5-10 7-15 7-5 0-11-2-15-7-30-30-45-71-45-111 0-40 15-80 45-111 8-8 21-8 30 0 8 8 8 22 0 30-22 23-33 52-33 81 0 30 11 59 33 81 8 9 8 22 0 30z m182-163c28 0 51 23 51 52 0 29-23 52-51 52-29 0-52-23-52-52 0-29 23-52 52-52z m210 163c-8 8-21 8-29 0-9-8-9-22 0-30 21-22 32-52 32-81 0-30-11-59-32-81-9-9-9-22 0-30 4-4 9-7 14-7 5 0 11 3 15 7 30 30 45 71 45 111 0 40-15 80-45 111z m-210-204c-14 0-27 3-39 9l-100-268 47 0 28 32 127 0 27-32 48 0-100 268c-12-6-25-9-38-9z m-1-16l33-115-64 0z m-63-179l32 32 64 0 31-32z m166 355c-8-8-8-21 0-29 10-11 15-24 15-38 0-14-5-28-15-38-8-8-8-22 0-30 4-4 9-6 14-6 5 0 10 2 14 6 18 19 28 43 28 68 0 24-10 49-28 67-8 9-20 9-28 0z"/>
<glyph glyph-name="rss" unicode="&#101;" d="M128 192c-35 0-64-29-64-64 0-35 29-64 64-64 35 0 64 29 64 64 0 35-29 64-64 64z m0 128c0 0-32-1-32-32 0-31 32-32 32-32 71 0 128-57 128-128 0 0 0-32 32-32 32 0 32 32 32 32 0 106-86 192-192 192z m0 128c0 0-32 0-32-32 0-32 32-32 32-32 141 0 256-115 256-256 0 0 0-32 32-32 32 0 32 32 32 32 0 177-143 320-320 320z"/>
<glyph glyph-name="technology" unicode="&#102;" d="M282 392c6 6 9 14 9 23 0 18-15 33-33 33-19 0-33-15-33-33 0-11 4-20 12-26l-112-382 23-7 11 37 160 143 51-172 2-8 23 7z m-39-68l17 57 10-33z m-4-36l38 34 26-87z m68-87l-135-120 54 185z m3 225c0-6-2-12-5-17l0-2 5-6 2 2c4 7 6 15 6 23 0 8-2 15-5 22l-2 2-1-1c-2-1-3-2-4-2l-2-1 1-2c3-6 5-12 5-18z m14-43c0 0 1 0 1 0l2-2 1 2c10 12 16 27 16 43 0 14-5 28-13 40l-2 2-2-2c0-1-1-2-2-4l-1-1 1-1c7-10 10-22 10-34 0-14-4-27-13-37l-1-2 2-2c0-1 1-1 1-2z m39 43c0-21-8-41-21-57l-2-1 2-2c1 0 1-1 2-2l3-2 1 2c15 17 23 39 23 62 0 24-8 47-24 64l-2 2-1-2c-1-1-2-2-3-4l-1-1 1-1c14-16 22-37 22-58z m27 0c0-27-9-54-27-75l-2-1 2-2c1 0 2-1 3-2l2-2 2 2c19 22 29 51 29 80 0 31-12 61-33 84l-1 2-2-1c-1-1-1-2-2-2l-3-3 2-1c19-22 30-50 30-79z m-188-25l5 7 0 1c-3 5-5 11-5 17 0 6 2 12 5 18l1 2-2 1c-1 0-3 1-4 2l-2 1-1-2c-3-7-5-14-5-22 0-8 2-16 6-23z m-18-18l1-2 2 2c0 0 1 0 1 0 0 1 1 1 1 2l2 2-1 2c-9 10-13 23-13 37 0 12 3 24 10 34l1 1-1 1c-1 2-2 3-3 4l-1 2-2-2c-8-12-13-26-13-40 0-16 6-31 16-43z m-20-19l1-2 3 2c1 1 1 2 2 2l2 2-2 1c-13 16-21 36-21 57 0 21 8 42 22 58l1 1-1 1c-1 2-2 3-3 4l-1 2-2-2c-16-17-25-40-25-64 0-23 9-45 24-62z m-20-19l2 1c1 1 2 2 3 2l1 2-1 1c-18 21-27 48-27 75 0 29 10 57 30 79l2 1-3 3c-1 0-1 1-2 2l-2 1-1-2c-21-23-33-53-33-84 0-29 10-58 29-80z"/>
<glyph glyph-name="calculator" unicode="&#105;" d="M110 73c0 10-4 19-11 26-7 7-16 11-26 11-10 0-19-4-26-11-7-7-10-16-10-26 0-10 3-19 10-26 7-7 16-10 26-10 10 0 19 3 26 10 7 7 11 16 11 26z m109 0c0 10-3 19-10 26-7 7-16 11-26 11-10 0-19-4-26-11-7-7-11-16-11-26 0-10 4-19 11-26 7-7 16-10 26-10 10 0 19 3 26 10 7 7 10 16 10 26z m-109 110c0 10-4 19-11 26-7 7-16 10-26 10-10 0-19-3-26-10-7-7-10-16-10-26 0-10 3-19 10-26 7-7 16-11 26-11 10 0 19 4 26 11 7 7 11 16 11 26z m219-110c0 10-3 19-11 26-7 7-15 11-25 11-11 0-19-4-26-11-7-7-11-16-11-26 0-10 4-19 11-26 7-7 15-10 26-10 10 0 18 3 25 10 8 7 11 16 11 26z m-110 110c0 10-3 19-10 26-7 7-16 10-26 10-10 0-19-3-26-10-7-7-11-16-11-26 0-10 4-19 11-26 7-7 16-11 26-11 10 0 19 4 26 11 7 7 10 16 10 26z m-109 110c0 10-4 18-11 25-7 8-16 11-26 11-10 0-19-3-26-11-7-7-10-15-10-25 0-11 3-19 10-26 7-7 16-11 26-11 10 0 19 4 26 11 7 7 11 15 11 26z m219-110c0 10-3 19-11 26-7 7-15 10-25 10-11 0-19-3-26-10-7-7-11-16-11-26 0-10 4-19 11-26 7-7 15-11 26-11 10 0 18 4 25 11 8 7 11 16 11 26z m-110 110c0 10-3 18-10 25-7 8-16 11-26 11-10 0-19-3-26-11-7-7-11-15-11-25 0-11 4-19 11-26 7-7 16-11 26-11 10 0 19 4 26 11 7 7 10 15 10 26z m220-220l0 110c0 10-4 18-11 26-7 7-16 10-26 10-10 0-18-3-25-10-8-8-11-16-11-26l0-110c0-10 3-18 11-26 7-7 15-10 25-10 10 0 19 3 26 10 7 8 11 16 11 26z m-110 220c0 10-3 18-11 25-7 8-15 11-25 11-11 0-19-3-26-11-7-7-11-15-11-25 0-11 4-19 11-26 7-7 15-11 26-11 10 0 18 4 25 11 8 7 11 15 11 26z m110 91l0 73c0 5-2 9-6 13-3 4-7 5-12 5l-366 0c-5 0-9-1-13-5-4-4-5-8-5-13l0-73c0-5 1-9 5-13 4-3 8-5 13-5l366 0c5 0 9 2 12 5 4 4 6 8 6 13z m0-91c0 10-4 18-11 25-7 8-16 11-26 11-10 0-18-3-26-11-7-7-10-15-10-25 0-11 3-19 10-26 8-7 16-11 26-11 10 0 19 4 26 11 7 7 11 15 11 26z m36 182l0-438c0-10-3-19-10-26-8-7-16-11-26-11l-402 0c-10 0-19 4-26 11-7 7-11 16-11 26l0 438c0 10 4 19 11 26 7 7 16 11 26 11l402 0c10 0 18-4 26-11 7-7 10-16 10-26z"/>
<glyph glyph-name="list" unicode="&#106;" d="M73 137l0-55c0-2-1-4-3-6-1-2-4-3-6-3l-55 0c-2 0-4 1-6 3-2 2-3 4-3 6l0 55c0 3 1 5 3 7 2 1 4 2 6 2l55 0c2 0 5-1 6-2 2-2 3-4 3-7z m0 110l0-55c0-2-1-5-3-6-1-2-4-3-6-3l-55 0c-2 0-4 1-6 3-2 1-3 4-3 6l0 55c0 2 1 4 3 6 2 2 4 3 6 3l55 0c2 0 5-1 6-3 2-2 3-4 3-6z m0 110l0-55c0-3-1-5-3-7-1-2-4-2-6-2l-55 0c-2 0-4 0-6 2-2 2-3 4-3 7l0 55c0 2 1 4 3 6 2 2 4 3 6 3l55 0c2 0 5-1 6-3 2-2 3-4 3-6z m439-220l0-55c0-2-1-4-3-6-2-2-4-3-6-3l-384 0c-3 0-5 1-7 3-1 2-2 4-2 6l0 55c0 3 1 5 2 7 2 1 4 2 7 2l384 0c2 0 4-1 6-2 2-2 3-4 3-7z m-439 329l0-55c0-2-1-4-3-6-1-2-4-3-6-3l-55 0c-2 0-4 1-6 3-2 2-3 4-3 6l0 55c0 3 1 5 3 7 2 2 4 2 6 2l55 0c2 0 5 0 6-2 2-2 3-4 3-7z m439-219l0-55c0-2-1-5-3-6-2-2-4-3-6-3l-384 0c-3 0-5 1-7 3-1 1-2 4-2 6l0 55c0 2 1 4 2 6 2 2 4 3 7 3l384 0c2 0 4-1 6-3 2-2 3-4 3-6z m0 110l0-55c0-3-1-5-3-7-2-2-4-2-6-2l-384 0c-3 0-5 0-7 2-1 2-2 4-2 7l0 55c0 2 1 4 2 6 2 2 4 3 7 3l384 0c2 0 4-1 6-3 2-2 3-4 3-6z m0 109l0-55c0-2-1-4-3-6-2-2-4-3-6-3l-384 0c-3 0-5 1-7 3-1 2-2 4-2 6l0 55c0 3 1 5 2 7 2 2 4 2 7 2l384 0c2 0 4 0 6-2 2-2 3-4 3-7z"/>
<glyph glyph-name="file-settings" unicode="&#107;" d="M149 363l0-43 128 0 0 43z m0-86l192 0 0 22-192 0z m192-21l-64 0 0-21 64 0z m-64-64l64 0 0 21-64 0z m-213 277l0-213 43 0 0 171 277 0 0-363-107 0 0-43 150 0 0 448z m143-330c0 5-1 10-2 14l30 20-19 33-30-20c-6 5-12 8-19 11l0 38-36 0 0-38c-7-3-13-6-18-11l-30 20-19-33 30-20c-2-4-2-9-2-14 0-5 0-10 2-15l-30-20 19-33 30 21c5-5 11-9 18-11l0-38 36 0 0 37c7 3 13 7 19 11l30-20 19 33-30 20c1 5 2 10 2 15z m-58-39c-19 0-35 17-35 39 0 21 16 38 35 38 20 0 36-17 36-38 0-22-16-39-36-39z"/>
<glyph glyph-name="clipboard" unicode="&#104;" d="M161 351l192 0c-2 20-10 36-28 41 0 0-1 0-1 0-12 4-21 8-21 21l0 21c0 25-21 46-47 46-25 0-45-21-45-46l0-21c0-13-9-17-21-20-1-1-1-1-1-1-19-5-26-21-28-41z m96 97c8 0 14-7 14-14 0-8-6-14-14-14-8 0-14 6-14 14 0 7 6 14 14 14z m149 0l-74 0 0-13c0-11 9-20 19-20l37 0c7 0 12-5 13-12l0-327c-1-6-6-11-12-12l-264 0c-6 1-11 6-12 12l0 327c1 7 6 12 13 12l37 0c10 0 19 9 19 20l0 13-74 0c-15 0-27-12-27-28l0-360c0-15 12-29 27-29l298 0c15 0 27 14 27 29l0 360c0 16-12 28-27 28z m-261-129l112 0 0-32-112 0z m0-192l160 0 0-32-160 0z m0 64l129 0 0-32-129 0z m0 64l208 0 0-32-208 0z"/>
<glyph glyph-name="ios-more" unicode="&#108;" d="M256 288c-18 0-32-14-32-32 0-18 14-32 32-32 18 0 32 14 32 32 0 18-14 32-32 32z m-128 0c-17 0-32-14-32-32 0-18 15-32 32-32 18 0 32 14 32 32 0 18-14 32-32 32z m256 0c-18 0-32-14-32-32 0-18 14-32 32-32 18 0 32 14 32 32 0 18-14 32-32 32z"/>
<glyph glyph-name="chevron-circle-down" unicode="&#109;" d="M269 141l130 130c3 3 5 7 5 12 0 5-2 10-5 13l-30 29c-3 4-7 6-12 6-5 0-10-2-13-6l-88-87-88 87c-3 4-8 6-13 6-5 0-9-2-12-6l-30-29c-3-3-5-8-5-13 0-5 2-9 5-12l130-130c4-4 8-6 13-6 5 0 9 2 13 6z m206 115c0-40-9-77-29-110-20-34-46-60-80-80-33-20-70-29-110-29-40 0-77 9-110 29-34 20-60 46-80 80-20 33-29 70-29 110 0 40 9 77 29 110 20 34 46 60 80 80 33 20 70 29 110 29 40 0 77-9 110-29 34-20 60-46 80-80 20-33 29-70 29-110z"/>
<glyph glyph-name="clipboard-1" unicode="&#110;" d="M43 512l0-512 426 0 0 512z m384-469l-342 0 0 426 342 0z m-22 384l-64 0 0 21-170 0 0-21-64 0 0-363 298 0z m-213 0l128 0 0-22-128 0z m192-342l-256 0 0 320 43 0 0-21 170 0 0 21 43 0z m-235 235l192 0 0 43-192 0z m0-43l192 0 0 22-192 0z m0-42l192 0 0 21-192 0z m0-43l192 0 0 21-192 0z m0-43l86 0 0 22-86 0z"/>
<glyph glyph-name="list-ol" unicode="&#111;" d="M109 49c0-15-5-27-16-36-10-9-23-13-38-13-21 0-37 6-50 19l17 25c9-9 19-13 30-13 6 0 10 2 14 4 5 3 7 7 7 12 0 13-10 18-30 16l-8 16c2 2 5 6 9 13 5 6 9 11 13 15 3 4 7 8 10 11l0 1c-3 0-8-1-14-1-6 0-11 0-14 0l0-15-30 0 0 43 95 0 0-25-27-33c10-2 18-7 23-14 6-7 9-15 9-25z m0 179l0-45-103 0c-1 7-2 12-2 15 0 10 3 19 7 27 4 8 10 14 16 19 6 5 13 10 19 14 6 4 12 8 16 12 5 4 7 9 7 13 0 5-2 9-4 11-3 3-7 4-12 4-8 0-16-6-23-17l-24 17c5 10 11 18 20 23 9 5 20 8 31 8 13 0 25-4 35-12 9-8 14-18 14-32 0-9-3-18-10-26-6-8-13-14-21-18-8-5-15-10-22-15-6-5-10-10-10-15l36 0 0 17z m403-91l0-55c0-2-1-4-3-6-2-2-4-3-6-3l-348 0c-2 0-4 1-6 3-2 2-3 4-3 6l0 55c0 3 1 5 3 7 2 1 4 2 6 2l348 0c2 0 4-1 6-2 2-2 3-4 3-7z m-402 257l0-28-96 0 0 28 31 0c0 8 0 19-1 35 0 15 0 27 0 34l0 4 0 0c-2-3-7-9-15-16l-20 22 39 36 30 0 0-115z m402-111l0-54c0-3-1-5-3-7-2-2-4-3-6-3l-348 0c-2 0-4 1-6 3-2 2-3 4-3 7l0 54c0 3 1 5 3 7 2 2 4 3 6 3l348 0c2 0 4-1 6-3 2-2 3-4 3-7z m0 147l0-55c0-3-1-5-3-7-2-1-4-2-6-2l-348 0c-2 0-4 1-6 2-2 2-3 4-3 7l0 55c0 2 1 4 3 6 2 2 4 3 6 3l348 0c2 0 4-1 6-3 2-2 3-4 3-6z"/>
<glyph glyph-name="circuit-board" unicode="&#112;" d="M160 384c18 0 32-14 32-32 0-18-14-32-32-32-18 0-32 14-32 32 0 18 14 32 32 32z m320-256c0-53-43-96-96-96l-224 0 96 96 41 0c11-19 31-32 55-32 35 0 64 29 64 64 0 35-29 64-64 64-24 0-44-13-55-32l-73 0-146-146c-28 17-46 47-46 82l0 256c0 53 43 96 96 96l0-73c-19-11-32-31-32-55 0-35 29-64 64-64 24 0 44 13 55 32l82 0c11-19 31-32 55-32 35 0 64 29 64 64 0 35-29 64-64 64-24 0-44-13-55-32l-81 0c-6 10-14 18-24 23l0 73 192 0c53 0 96-43 96-96z m-160 32c0 18 14 32 32 32 18 0 32-14 32-32 0-18-14-32-32-32-18 0-32 14-32 32z m0 192c0 18 14 32 32 32 18 0 32-14 32-32 0-18-14-32-32-32-18 0-32 14-32 32z"/>
<glyph glyph-name="clock" unicode="&#114;" d="M284 64c-12-2-24-3-36-3-108 0-195 87-195 195 0 108 87 195 195 195 108 0 195-87 195-195 0-2 0-3 0-5 1 0 2 0 3 0 12 0 22-7 26-17l0 0c8 0 16-2 22-5 1 9 2 18 2 27 0 137-111 248-248 248-137 0-248-111-248-248 0-137 111-248 248-248 18 0 36 2 53 6-11 10-17 24-17 40z m-62 317l0-109-69 0c-15 0-26-11-26-26 0-14 11-26 26-26l95 0c15 0 26 12 26 26l0 135c0 15-11 27-26 27-15 0-26-12-26-27z m160-191c0 3-1 7-3 9l0 24c0 6-6 12-12 12l0 0c-7 0-12-6-12-12l0-24c-2-2-3-6-3-9 0-9 6-15 15-15l0 0c8 0 15 6 15 15z m35 9l0 24c0 6-5 12-11 12-7 0-12-6-12-12l0-24c-2-2-3-6-3-9 0-9 7-15 15-15 8 0 15 6 15 15 0 3-1 7-4 9z m28 36c-7 0-12-6-12-12l0-24c-2-2-3-6-3-9 0-9 6-15 15-15 8 0 15 6 15 15 0 3-1 7-4 9l0 24c0 6-5 12-11 12z m26-18l-4 0 0-23 4 0c10 0 18-8 18-18l0-122c0-9-8-17-18-17l-131 0c-10 0-17 8-17 17l0 122c0 10 7 18 17 18l4 0 0 23-4 0c-22 0-41-19-41-41l0-122c0-22 19-40 41-40l131 0c23 0 41 18 41 40l0 122c0 22-18 41-41 41z m-116-96c-8 0-15-7-15-15 0-8 7-15 15-15 9 0 15 7 15 15 0 8-6 15-15 15z m51 0c-9 0-15-7-15-15 0-8 6-15 15-15 8 0 15 7 15 15 0 8-7 15-15 15z m50 0c-8 0-15-7-15-15 0-8 7-15 15-15 9 0 15 7 15 15 0 8-6 15-15 15z m-101-40c-8 0-15-7-15-16 0-8 7-15 15-15 9 0 15 7 15 15 0 9-6 16-15 16z m51 0c-9 0-15-7-15-16 0-8 6-15 15-15 8 0 15 7 15 15 0 9-7 16-15 16z m50 0c-8 0-15-7-15-16 0-8 7-15 15-15 9 0 15 7 15 15 0 9-6 16-15 16z m0 81c-8 0-15-7-15-15 0-9 7-16 15-16 9 0 15 7 15 16 0 8-6 15-15 15z"/>
<glyph glyph-name="gestures" unicode="&#115;" d="M498 311l-75 93c-9 11-21 18-36 20-14 1-28-3-39-12l-19-15c-11-9-17-21-19-33l-102 0c-2 0-5 0-7-1-2 13-9 25-20 34l-19 15c-11 9-25 13-39 12-15-2-27-9-36-20l-75-93c-9-11-13-25-12-39 2-15 9-27 20-36l19-16c10-7 22-12 34-12 6 0 11 1 17 3l138-110c9-7 20-11 31-11 2 0 3 0 5 0 10 1 19 5 27 11l135 108c4 0 7-1 11-1 0 0 0 0 0 0 12 0 24 4 34 12l19 15c11 10 18 22 20 37 1 14-3 28-12 39z m-457-49c-4 3-6 8-7 13-1 6 1 11 4 15l75 93c3 4 8 6 13 7 1 0 2 0 2 0 5 0 10-2 13-4l19-16c9-7 10-19 3-28l-75-92c-6-9-19-10-28-3z m335-50c-4-3-9-3-13 0l-80 65c-6 5-14 8-22 8l-53 0c-6 0-12 5-12 12l0 21c0 7 6 12 12 12l97 0c3 0 6-2 8-4l75-91c1-2 2-5 2-8-1-2-2-5-4-6z m100 63c-1-5-3-10-7-13l-19-15c-4-3-8-5-13-5-6 0-12 3-15 8l-75 92c-7 9-6 21 3 28l19 16c4 2 8 4 13 4 0 0 1 0 2 0 5-1 10-3 13-7l75-93c3-4 5-9 4-15z"/>
<glyph glyph-name="arrow" unicode="&#116;" d="M74 254l45 0 0-45-45 0z m0-71l45 0 0-46-45 0z m76 143l45 0 0-45-45 0z m0-72l45 0 0-45-45 0z m0-71l45 0 0-46-45 0z m271 136l0 132c0 18-14 32-31 32l-358 0c-18 0-32-14-32-32l0-357c0-18 14-32 32-32l233 0c26-21 59-33 95-33 84 0 152 68 152 152 0 62-37 115-91 138z m-283 133l145 0 0-37-145 0z m-99-73l343 0 0-48c-7 1-14 1-22 1-33 0-64-10-89-29l0 23-46 0 0-45 21 0c-23-27-38-62-38-100 0-28 8-54 20-76l-189 0z m307-75c0 8 6 14 14 14 8 0 14-6 14-14 0-7-6-14-14-14-8 0-14 7-14 14z m-96-123c0-8-6-14-14-14-7 0-14 6-14 14 0 7 7 13 14 13 8 0 14-6 14-13z m110-138c-8 0-14 6-14 14 0 7 6 14 14 14 8 0 14-7 14-14 0-8-6-14-14-14z m84 200l-58-58c0-2 1-3 1-5 0-15-12-28-27-28-15 0-26 12-27 26l-62 48c-6 5-7 12-3 17 4 5 11 6 17 1l57-44c4 5 11 8 18 8 5 0 9-2 13-4l55 55c5 6 13 6 18 2 4-5 3-13-2-18z m40-76c-8 0-14 6-14 14 0 7 6 13 14 13 7 0 14-6 14-13 0-8-7-14-14-14z"/>
<glyph glyph-name="accounts-services" unicode="&#119;" d="M471 420l-430 0c-23 0-41-19-41-41l0-246c0-22 18-41 41-41l430 0c23 0 41 19 41 41l0 246c0 22-18 41-41 41z m-329-66c23 0 41-19 41-42 0-23-18-43-41-43-23 0-41 20-41 43 0 23 18 42 41 42z m67-105l-11-72c-2-12-8-19-19-19l-74 0c-11 0-17 7-19 19l-11 72c-1 8 4 14 19 19l14 3c9-8 21-13 34-13 13 0 25 5 34 13l15-3c15-5 20-11 18-19z m231-91l-154 0c-9 0-15 7-15 16 0 8 6 15 15 15l154 0c8 0 15-7 15-15 0-9-7-16-15-16z m0 84l-154 0c-8 0-15 6-15 15 0 9 7 15 15 15l154 0c9 0 15-6 15-15 0-9-6-15-15-15z m0 82l-155 0c-8 0-15 6-15 15 0 8 7 15 15 15l155 0c9 0 15-7 15-15 0-8-6-15-15-15z"/>
<glyph glyph-name="alert" unicode="&#120;" d="M502 109l-201 349c-9 16-27 26-45 26-18 0-36-10-45-26l-203-352c-9-16-9-35 0-52 9-16 27-26 45-26l406 0c29 0 52 24 52 52 0 10-3 20-9 29z m-274 240c0 15 12 27 27 27 15 0 27-12 27-27l0-163c0-15-12-27-27-27-15 0-27 12-27 27z m27-270c-16 0-30 13-30 30 0 16 14 29 30 29 16 0 30-13 30-29 0-17-14-30-30-30z"/>
<glyph glyph-name="asset-management" unicode="&#121;" d="M22 204l201 0c-8 5-16 12-22 18-24 23-39 53-42 86l-137 0c-12 0-22-10-22-21l0-61c0-12 10-22 22-22z m30 74c11 0 21-10 21-22 0-12-10-22-21-22-12 0-22 10-22 22 0 12 10 22 22 22z m-30 56l137 0c2 33 17 64 42 88 5 6 11 11 18 16l-197 0c-12-1-22-10-22-22l0-61c0-11 10-21 22-21z m30 73c11 0 21-10 21-21 0-12-10-22-21-22-12 0-22 10-22 22 0 11 10 21 22 21z m450-232l-99 83c0 1-1 1-2 2 30 44 25 105-15 144-24 22-54 33-84 33-30 0-60-11-83-34-46-45-46-118 0-162 23-23 53-34 83-34 23 0 45 6 64 18 1 0 1-1 2-2l85-96c6-6 15-9 24-9 8 0 17 3 24 9l0 1c15 13 15 34 1 47z m-139 88c-17-16-38-24-60-24-22 0-44 8-61 24-33 33-33 86 0 118 17 17 39 25 61 25 22 0 44-8 60-25 33-32 33-86 0-118z m-59-85l-282 0c-12 0-22-10-22-21l0-61c0-12 10-21 22-21l282 0c12 0 22 9 22 21l0 61c0 11-10 21-22 21z m-252-73c-12 0-22 10-22 21 0 12 10 22 22 22 11 0 21-10 21-22 0-11-10-21-21-21z"/>
<glyph glyph-name="asset-tracking" unicode="&#122;" d="M497 280c-9 0-16 7-16 16 0 93-75 169-169 169-8 0-15 6-15 15 0 9 7 15 15 15 110 0 200-89 200-199 0-9-7-16-15-16z m-62 0c-9 0-15 7-15 16 0 59-48 107-108 107-8 0-15 7-15 16 0 8 7 15 15 15 77 0 139-62 139-138 0-9-7-16-16-16z m-61 0c-9 0-16 7-16 16 0 25-20 46-46 46-8 0-15 6-15 15 0 9 7 15 15 15 43 0 77-34 77-76 0-9-7-16-15-16z m-212-86l0-177 135 74c7 3 12 12 12 19l0 167z m-162-84c0-7 5-16 11-19l135-74 0 177-146 83z m62 219l-50-28c-6-4-6-9 0-13l142-81 62 35 8 5-153 87z m234-28l-130 75c-6 3-16 3-22 0l-57-33 153-87 57 32c6 4 6 9-1 13z"/>
<glyph glyph-name="attachment" unicode="&#65;" d="M479 462c-23 26-56 47-91 50-22 2-44-3-64-12-10-3-20-8-28-15l-235-203c-9-8-9-22-1-31 8-8 22-9 31-1l227 196 1-1c18 16 40 23 64 22 23-1 45-17 61-35 16-18 23-41 21-65-2-23-12-44-29-60l0 0-306-249-6-5c-10-9-18-9-32-8-14 1-26 7-36 17-9 10-13 24-12 38 1 14 8 26 18 35l235 203c5 5 10 6 16 6 5 0 10-2 14-7 3-4 5-9 5-15-1-6-3-11-8-15l-173-142c-9-8-10-22-2-31 8-9 21-10 31-2l173 142c13 12 21 28 22 45 2 17-4 34-15 47-11 13-27 21-44 22-18 1-34-6-48-17l-237-205c-5-5-9-10-13-16-10-14-16-31-17-48-3-26 6-51 23-70 16-19 40-30 65-32 26-2 51 7 70 25l-5-6 311 254c2 2 4 5 6 7 4 3 7 6 10 10 17 21 28 47 30 75 3 35-8 70-32 97z"/>
<glyph glyph-name="back-caret" unicode="&#66;" d="M364 512c10 0 21-4 29-12 15-16 15-42 0-58l-187-186 186-187c16-15 16-41 0-57-16-16-42-16-57 0l-215 215c-16 16-16 42 0 58l215 215c8 8 18 12 29 12z"/>
<glyph glyph-name="back-up" unicode="&#67;" d="M435 364l-11 2-2 11c-8 44-46 75-90 75-14 0-29-4-42-11l-11-6-9 10c-21 24-51 38-83 38-59 0-107-47-109-106l0-12-12-3c-39-11-66-47-66-87 0-47 35-85 81-90l5-1 64 0 0 70-36 0c-4 0-7 2-9 6-2 4-1 9 2 12l62 63c9 9 22 9 31 0l62-63c3-3 4-8 2-12-2-4-5-6-9-6l-36 0 0-70 76 0 0-67-36 0c-4 0-7-3-9-6-2-4-1-9 2-12l62-63c9-9 23-9 31 0l63 63c3 3 4 8 2 12-2 4-6 6-10 6l-36 0 0 67 56 0c50 0 91 41 91 91 1 45-31 82-76 89z"/>
<glyph glyph-name="battery-life-10" unicode="&#68;" d="M456 404l-361 0c-30 0-54-23-54-54l0-34-26 0c-8 0-14-6-14-13l0-94c0-7 6-14 14-14l26 0 0-33c0-30 24-55 54-55l361 0c30 0 55 24 55 55l0 188c0 31-25 54-55 54z m18-242c0-10-9-18-18-18l-361 0c-9 0-17 8-17 18l0 188c0 10 7 17 17 17l361 0c9 0 18-7 18-17z m-55 169l-19 0 0-150 19 0c10 0 18 9 18 18l0 115c0 9-8 17-18 17z"/>
<glyph glyph-name="bill" unicode="&#69;" d="M338 382l83 0-113 104 1-75c0-17 13-29 29-29z m-59 27l0 103-169 0c-28 0-51-23-51-51l0-410c0-28 23-51 51-51l292 0c28 0 51 23 51 51l0 299-115 0c-32 0-59 27-59 59z m-105-288l0-15c0-7-6-13-13-13-7 0-13 6-13 13l0 14-16 0c-8 0-13 5-13 12 0 8 5 13 13 13l31 0c22 0 28 3 28 16 0 12-7 15-25 17-35 5-49 16-49 42 0 17 11 43 47 45l0 14c0 7 5 13 13 13 7 0 12-6 12-13l0-16 12 0c7 0 13-5 13-12 0-8-6-13-13-13l-32 0 0 1c-21 0-24-9-24-19 0-12 10-13 27-15 31-5 47-14 47-43 0-22-9-38-45-41z m204-15l-120 0c-9 0-15 7-15 16 0 8 6 15 15 15l120 0c9 0 16-7 16-15 0-9-7-16-16-16z m0 71l-120 0c-9 0-15 7-15 16 0 8 6 15 15 15l120 0c9 0 16-7 16-15 0-9-7-16-16-16z m16 87c0-9-7-15-16-15l-120 0c-9 0-15 6-15 15 0 9 6 15 15 15l120 0c9 0 16-7 16-15z"/>
<glyph glyph-name="booklet" unicode="&#70;" d="M461 118l-1 323c0 34-30 71-92 71l-210 0c-1 0-2 0-4 0-1 0-2 0-3 0-55 0-100-45-100-100 0-4 0-15 0-18l1-333c0-34 23-62 51-62l251 0c25 0 46 23 50 53 0 3 0 6 0 9l-2 333c0 37-10 61-50 61l-222 0c-7 0-13 7-13 14 0 8 6 14 13 14l228 0c41 0 71-28 71-61l2-332c0-11-2-22-6-31 21 8 36 31 36 59z m-137 35l-194 0c-7 0-13 7-13 14 0 8 6 14 13 14l194 0c7 0 14-6 14-14 0-7-7-14-14-14z m0 65l-194 0c-7 0-13 6-13 14 0 7 6 14 13 14l194 0c7 0 14-7 14-14 0-8-7-14-14-14z m-194 93l194 0c7 0 14-6 14-14 0-7-7-14-14-14l-194 0c-7 0-13 7-13 14 0 8 5 14 13 14z"/>
<glyph glyph-name="bookmark" unicode="&#71;" d="M410 512l-308 0c-31 0-56-26-56-57l0-455 210 97 210-97 0 455c0 31-26 57-56 57z m-57-247l-72 0 0-72c0-14-12-25-25-25-14 0-25 12-25 25l0 72-72 0c-14 0-24 11-24 25 0 14 11 24 24 24l72 0 0 73c0 13 12 24 25 24 14 0 25-11 25-24l0-73 72 0c14 0 24-11 24-24 0-14-11-25-24-25z"/>
<glyph glyph-name="calendar-date" unicode="&#72;" d="M309 206c17 0 23 13 23 22 0 10-4 22-23 22-18 0-22-12-22-22 0-9 6-22 22-22z m0-28c-18 0-27-11-27-25 0-11 6-25 27-25 21 0 27 14 27 25 0 14-9 25-27 25z m-309 157l0-245c0-29 23-52 51-52l410 0c28 0 51 23 51 52l0 245z m234-229l-87 0c-8 0-15 7-15 15 0 4 2 8 4 10l66 81c5 7 7 11 7 16 0 11-4 20-24 20-11 0-14 1-30-5-2-1-5-2-8-2-7 0-13 6-13 13 0 6 3 10 7 13 12 5 26 9 44 9 47 0 54-28 54-47 0-14-8-27-20-42l-47-52 60 0c1 0 1 0 2 0 8 0 14-6 14-14 0-9-6-15-14-15z m75-6c-43 0-58 25-58 53 0 14 6 33 18 42-7 7-13 22-13 33 0 25 13 50 53 50 40 0 53-25 53-50 0-11-5-26-13-34 13-8 19-27 19-41-1-28-16-53-59-53z m152 374l-410 0c-28 0-51-23-51-52l0-71 512 0 0 71c0 29-23 52-51 52z m-314-92c-14 0-26 12-26 27 0 14 12 26 26 26 14 0 26-12 26-26 0-15-12-27-26-27z m219 1c-15 0-27 12-27 27 0 14 12 26 27 26 14 0 26-12 26-26 0-15-12-26-26-27z"/>
<glyph glyph-name="calendar-general" unicode="&#73;" d="M461 474l-410 0c-28 0-51-23-51-52l0-332c0-29 23-52 51-52l410 0c28 0 51 23 51 52l0 332c0 29-23 52-51 52z m-328-395c0-3-2-5-5-5l-87 0c-3 0-5 2-5 5l0 67c0 3 2 5 5 5l87 0c3 0 5-2 5-5z m0 93c0-4-2-6-5-6l-87 0c-3 0-5 2-5 6l0 66c0 3 2 5 5 5l87 0c3 0 5-2 5-5z m0 92c0-3-2-5-5-5l-87 0c-3 0-5 2-5 5l0 66c0 3 2 5 5 5l87 0c3 0 5-2 5-5z m-11 145c0 14 12 25 26 25 14 0 26-11 26-25 0-15-12-26-26-26-14 0-26 12-26 26z m129-330c0-3-2-5-5-5l-87 0c-3 0-5 2-5 5l0 67c0 3 2 5 5 5l87 0c3 0 5-2 5-5z m0 93c0-4-2-6-5-6l-87 0c-3 0-5 2-5 6l0 66c0 3 2 5 5 5l87 0c3 0 5-2 5-5z m0 92c0-3-2-5-5-5l-87 0c-3 0-5 2-5 5l0 66c0 3 2 5 5 5l87 0c3 0 5-2 5-5z m113-185c0-3-3-5-6-5l-87 0c-3 0-5 2-5 5l0 67c0 3 2 5 5 5l87 0c3 0 6-2 6-5z m0 93c0-4-3-6-6-6l-87 0c-3 0-5 2-5 6l0 66c0 3 2 5 5 5l87 0c3 0 6-2 6-5z m0 92c0-3-3-5-6-5l-87 0c-3 0-5 2-5 5l0 66c0 3 2 5 5 5l87 0c3 0 6-2 6-5z m-25 145c0 14 11 25 26 25 14 0 25-11 25-25 0-15-11-26-25-26-14 0-26 12-26 26z m137-330c0-3-2-5-5-5l-87 0c-3 0-5 2-5 5l0 67c0 3 2 5 5 5l87 0c3 0 5-2 5-5z m0 93c0-4-2-6-5-6l-87 0c-3 0-5 2-5 6l0 66c0 3 2 5 5 5l87 0c3 0 5-2 5-5z m0 92c0-3-2-5-5-5l-87 0c-3 0-5 2-5 5l0 66c0 3 2 5 5 5l87 0c3 0 5-2 5-5z"/>
<glyph glyph-name="call-log" unicode="&#74;" d="M368 0l-224 0c-27 0-49 22-49 49l0 414c0 27 22 49 49 49l224 0c27 0 49-22 49-49l0-414c0-27-22-49-49-49z m-224 481c-10 0-18-8-18-18l0-414c0-10 8-18 18-18l224 0c10 0 18 8 18 18l0 414c0 10-8 18-18 18z m127-416c0 9-7 16-15 16-9 0-16-7-16-16 0-9 7-16 16-16 8 0 15 7 15 16z m70 389l-170 0c-10 0-19-9-19-20l0-315c0-11 9-20 19-20l170 0c11 0 19 9 19 20l0 316c0 10-9 19-19 19z m-29-263l-112 0c-7 0-13 6-13 14 0 7 6 14 13 14l112 0c7 0 13-7 13-14 0-7-6-14-13-14z m0 72l-112 0c-7 0-13 6-13 13 0 8 6 14 13 14l112 0c7 0 13-6 13-14 0-7-6-13-13-13z m0 71l-112 0c-7 0-13 6-13 14 0 7 6 13 13 13l112 0c7 0 13-6 13-13 0-8-6-14-13-14z"/>
<glyph glyph-name="car" unicode="&#75;" d="M502 311l-45 0-35 88c-4 11-11 24-30 30 0 0-55 16-136 16-88 0-143-16-143-16-18-7-23-12-30-30l-34-88-39 0c-6 0-10-4-10-9l0-26c0-5 4-10 10-10l25 0-15-106 0-83c0-6 4-10 10-10l64 0c6 0 11 4 11 10l0 31 304 0 0-31c0-6 4-10 10-10l65 0c5 0 10 4 10 10l0 78c0 0 0 1 0 1l0 8-22 102 30 0c5 0 10 5 10 10l0 26c0 5-4 9-10 9z m-391-113c-19 0-34 15-34 34 0 18 15 33 34 33 18 0 34-14 34-33 0-19-15-34-34-34z m143 113l-163 0 30 76c4 8 5 9 8 10 0 0 51 15 125 15 0 0 0 0 1 0 0 0 1 0 1 0 73 0 125-15 125-15 3-1 4-2 8-10l30-76z m163-116c-19 0-34 16-34 34 0 19 15 34 34 34 18 0 33-15 33-34 0-18-15-34-33-34z"/>
<glyph glyph-name="car-side-view" unicode="&#76;" d="M404 221c-23 0-40-18-40-40 0-22 18-40 40-40 22 0 40 18 40 40l0 1c0 21-18 39-40 39m-296 0c-22 0-40-18-40-40 0-22 19-40 40-40 22 0 40 18 40 40l0 1c1 21-17 39-40 39m393-12c-8 33-9 63-36 72-68 22-94 27-94 27 0 0-31 31-43 41-6 5-17 12-36 17-24 7-104 5-104 5-37 0-156-71-156-71-15-9-21-12-21-23l0-68c-6-3-10-9-9-15 1-8 8-13 15-13l34 0c0 32 26 58 57 58 32 0 58-26 58-58l180 0c0 32 26 58 57 58 32 0 58-26 58-58l33 0c8 0 14 5 15 13 2 7-2 13-8 15z m-302 95l-91 0 8 8c0 0 25 23 33 28 21 13 50 14 50 14z m17 0l0 51c0 0 54 1 77-7 19-7 47-36 47-36l8-8-132 0z"/>
<glyph glyph-name="cloud-services" unicode="&#77;" d="M511 442l0 26c0 15-11 26-25 26l-21 0c0 0-1 0-2 0-1 0-2 0-2 0-68 0-136 0-204 0-68 0-137 0-205 0 0 0-1 0-1 0 0 0-1 0-2 0-1 0-2 0-2 0l-21 0c-14 0-25-11-25-26l0-97c0-14 11-26 25-26l21 0c0 0 1 0 2 0 0 0 1 0 2 0 0 0 1 0 2 0 136 0 272 0 408 0 0 0 0 0 0 0 1 0 2 0 2 0 1 0 2 0 2 0l21 0c14 0 25 12 25 26l0 26c0 0 0 0 0 1 0 14 0 29 0 44z m-128-38l-324 0c-9 0-16 7-16 16 0 8 7 15 16 15l324 0c9 0 16-7 16-15 0-9-8-16-16-16z m70 2c-3-1-6-2-10-2-8 1-15 7-14 16 0 8 7 15 15 15 4 0 6-1 9-3 4-3 7-8 7-13 0-6-3-10-7-13z m58-127l0 26c0 15-11 26-25 26l-21 0c0 0-1 0-2 0-1 0-2 0-2 0-68 0-136 0-203 0-69 0-137 0-205 0 0 0-1 0-1 0-1 0-1 0-2 0 0 0-1 0-2 0l-22 0c-14 0-25-11-25-26l0-97c0-14 11-25 25-25l21 0c0 0 1 0 2 0 0 0 1 0 2 0 0 0 1 0 2 0 136 0 272 0 408 0 0 0 0 0 0 0 1 0 2 0 2 0 1 0 2 0 2 0l21 0c14 0 25 11 25 25l0 26c0 0 0 0 0 1 0 15 0 30 0 44z m-128-38l-324 0c-9 0-16 7-16 16 0 9 7 15 16 15l324 0c9 0 16-6 16-15 0-8-8-16-16-16z m70 2c-3-1-6-2-10-2-8 1-15 8-14 16 0 8 7 15 15 15 4 0 6-1 9-3 4-3 7-8 7-13 0-5-3-10-7-13z m58-128l0 26c0 14-11 26-25 26l-21 0c0 0-1 0-2 0-1 0-2 0-2 0-68 0-136 0-203 0-69 0-137 0-205 0 0 0-1 0-1 0-1 0-1 0-2 0 0 0-1 0-2 0l-22 0c-14 0-25-12-25-26l0-97c0-15 11-26 25-26l21 0c0 0 1 0 2 0 0 0 1 0 2 0 0 0 1 0 2 0 136 0 272 0 408 0 0 0 0 0 0 0 1 0 2 0 2 0 1 0 2 0 2 0l21 0c14 0 25 11 25 26l0 26c0 0 0 0 0 0 0 15 0 30 0 45z m-128-38l-324 0c-9 0-16 7-16 15 0 9 7 16 16 16l324 0c9 0 16-7 16-16 0-8-8-15-16-15z m70 2c-3-1-6-2-10-2-8 1-15 8-14 16 0 8 7 15 15 15 4 0 6-1 9-3 4-3 7-8 7-13 0-6-3-10-7-13z"/>
<glyph glyph-name="communication" unicode="&#78;" d="M511 279c0 112-114 202-255 202-141 0-255-90-255-202 0-112 114-202 255-202 19 0 38 1 56 5l126-50c1 0 1-1 1-1 0 0 0 0 1 0 1 0 2 1 3 2 1 1 1 2 2 3 0 0 0 0 0 1l0 0c0 1 0 1 0 1l-2 9-13 85c50 36 81 89 81 147z"/>
<glyph glyph-name="compose" unicode="&#79;" d="M218 273l197 197 54-54-197-197z m-14-15l-58-112 112 58z m302 223l-25 25c-8 8-21 8-29 0l-22-22 54-54 22 22c8 8 8 21 0 29m-110-392c0-19-16-35-35-35l-272 0c-19 0-35 16-35 35l0 273c0 19 16 34 35 34l195 0 54 55-249 0c-49 0-89-40-89-89l0-273c0-49 40-89 89-89l272 0c50 0 89 40 89 89l0 249-54-54z"/>
<glyph glyph-name="connectivity" unicode="&#80;" d="M295 276c11-22 2-48-19-59-22-11-48-2-59 19-11 22-2 48 19 59 22 11 48 2 59-19z m-197-220c-7 0-13 3-18 8-52 51-80 119-80 192 0 73 28 141 79 192 10 10 26 10 36 0 10-10 10-26 0-36-41-41-64-97-64-156 0-59 23-114 64-156 10-10 10-26 0-36-4-5-11-8-17-8z m316 0c-6 0-13 3-18 8-9 10-9 26 0 36 42 41 65 97 65 156 0 59-23 114-65 156-9 10-9 26 0 36 10 10 26 10 36 0 51-51 79-119 79-192 0-73-28-141-79-192-4-5-11-8-18-8z m-240 90c-8 0-14 3-20 9-27 27-42 63-42 102 0 38 15 74 42 101 11 11 28 11 39 0 11-10 11-28 0-39-17-16-26-38-26-62 0-24 9-47 26-63 11-11 11-29 0-39-5-6-12-9-19-9z m164 0c-7 0-13 3-19 9-11 10-11 28 0 39 17 16 26 38 26 63 0 23-9 46-26 62-11 11-11 29 0 39 11 11 28 11 39 0 27-27 42-63 42-101 0-39-15-75-42-102-6-6-13-9-20-9z"/>
<glyph glyph-name="data" unicode="&#81;" d="M255 277c1-3 4-5 7-5l27 0 0-84c0-7 7-13 15-13l23 0c8 0 14 6 14 13l0 84 27 0c3 0 6 2 7 5 2 3 1 7-1 9l-47 47c-7 7-17 7-23 0l-48-47c-2-3-3-6-1-9z m0-42c-1 3-4 5-7 5l-27 0 0 84c0 7-7 13-15 13l-23 0c-7 0-14-6-14-13l0-84-27 0c-3 0-6-2-8-5-1-3-1-7 2-9l47-47c7-7 17-7 23 0l48 47c2 3 3 6 1 9z m1-235c0 0-1 0-1 0-141 1-256 116-255 257 0 21 17 38 38 38 21 0 38-17 38-38 0-99 80-180 179-181 1 0 1 0 1 0 48 0 92 19 127 52 34 34 53 79 53 127 0 99-80 180-179 181-21 0-38 17-38 38 0 21 17 38 38 38 141-1 256-116 255-257-1-69-28-133-76-181-48-48-112-74-180-74z"/>
<glyph glyph-name="direct-call" unicode="&#82;" d="M475 410l-51 0 12 51c2 10-4 20-14 22-1 0-2 0-4 0-8 0-15-5-17-14l-13-59-29 0 1 6 10 45c1 10-4 20-14 22-1 0-3 0-4 0-8 0-15-5-17-14l-11-52-2-7 1 0-54 0c-4 0-9-2-12-5-4-4-5-8-5-13 0-10 8-18 17-18l45 0-6-28-58 0c-5 0-9-2-13-5-4-4-5-8-5-13 0-9 8-18 18-18l50 0-11-54c-2-9 4-19 13-21 2-1 3-1 4-1 8 0 16 6 18 14l2 11 9 48 1 3 30 0-7-32-3-11c0-1 0-1 0-1 0-1 0-1 0-1l-1-9c-3-9 3-19 13-21 1-1 2-1 4-1 8 0 15 6 17 14l13 62 53 0c4 0 9 2 12 6 4 3 5 7 5 12 0 10-8 18-17 18l-45 0 6 28 59 0c4 0 9 2 12 5 4 4 5 8 5 13 0 10-8 18-17 18z m-102-64l-30 0 7 28 29 0z m-196 41l-38 105c0 0-6 15-27 15l-28-4c0 0-94-12-81-126 0 0 43-272 345-364 0 0 120-40 154 56 0 0 4 19 8 41 0 0 4 13-12 23l-93 54c0 0-16 12-29-1 0 0-20-17-41-41l-9-12c0 0-5-6-20-1 0 0-91 29-173 167 0 0-7 10 7 24 0 0 15 13 34 34 0 0 10 8 5 24z"/>
<glyph glyph-name="download" unicode="&#83;" d="M458 290c-4 10-14 16-24 16l-90 0 0 159c-2 26-24 47-50 47l-76 0c-27 0-48-21-50-47l0-159-90 0c-10 0-19-6-24-16-5-10-2-23 5-31l158-158c22-21 56-21 78 0l158 159c8 7 10 20 5 30z m-23-290l-358 0c-15 0-26 12-26 26 0 14 11 25 26 25l358 0c15 0 26-11 26-25 0-14-11-26-26-26z"/>
<glyph glyph-name="emails-calls" unicode="&#84;" d="M243 159l-66 231c-5 16-22 26-38 21l-74-21-7 22c-3 10-15 17-25 14-11-3-18-15-15-26l7-22c-17-5-26-22-21-38l65-231c5-16 22-26 39-21l114 32c16 6 26 23 21 39z m-169 49c-4 12 3 23 14 26 11 3 22-3 25-14 4-12-3-23-14-26-10-3-22 3-25 14z m45-83c-11-4-22 3-25 14-3 11 3 22 14 25 11 4 22-3 26-14 2-11-4-22-15-25z m-30 142c-16-5-33 5-38 21l-5 19c-5 17 4 34 21 38l54 16c16 5 33-5 38-21l5-20c5-16-4-33-21-38z m59-38c-3 11 3 22 14 26 11 3 23-4 26-15 3-11-3-22-15-25-11-3-22 4-25 14z m45-84c-11-3-22 4-25 15-4 11 3 22 14 25 11 3 22-3 25-14 4-11-3-22-14-26z m296 232l-281 0 33-114c24-9 41-15 41-15 5-2 9-3 14-3 5 0 10 2 14 3 0 0 175 65 176 66 22 8 24 7 24 23l0 19c0 11-10 21-21 21z m16-90c-3 1-5 0-10-2l-186-69c-2-1-9-2-12-2-5 0-8 0-12 2l-34 13 18-61c9-31-9-62-40-72l-39-11 278 0c23 0 42 20 42 44l0 149c0 4-2 7-5 9z"/>
<glyph glyph-name="external-link" unicode="&#85;" d="M207 493c-3-11-1-21 7-29l63-63-113-113c-17-20-16-50 2-69l54-53c19-19 49-20 69-3l113 113 63-63c8-7 18-10 29-6 11 4 18 14 18 25l0 225c-1 29-25 54-55 54l-224 0c-11 0-22-7-26-18z m305-366c-3 15-15 26-30 26-16 0-29-14-30-30l0-44c0-9-8-18-18-19l-355 0c-10 0-19 9-19 19l0 352c0 10 8 19 18 19l49 0c15 2 26 15 26 30 0 15-11 28-26 30l-72 1c-15 0-28-6-39-16-10-11-16-24-16-39l0-400c0-30 25-55 55-55l402 0c30 0 54 25 54 55l0 67z"/>
<glyph glyph-name="external-link-1" unicode="&#86;" d="M207 493c-3-11-1-21 7-29l63-63-113-113c-17-20-16-50 2-69l54-53c19-19 49-20 69-3l113 113 63-63c8-7 18-10 29-6 11 4 18 14 18 25l0 225c-1 29-25 54-55 54l-224 0c-11 0-22-7-26-18z m305-366c-3 15-15 26-30 26-16 0-29-14-30-30l0-44c0-9-8-18-18-19l-355 0c-10 0-19 9-19 19l0 352c0 10 8 19 18 19l49 0c15 2 26 15 26 30 0 15-11 28-26 30l-72 1c-15 0-28-6-39-16-10-11-16-24-16-39l0-400c0-30 25-55 55-55l402 0c30 0 54 25 54 55l0 67z"/>
<glyph glyph-name="federal-civilian" unicode="&#87;" d="M481 0l-450 0c-17 0-31 14-31 31 0 18 14 31 31 31l449 0c18 0 31-13 31-31 1-17-13-31-30-31m-399 103c-17 0-31 14-31 31l0 121c0 18 14 32 31 32 18 0 32-14 32-32l0-120c0-18-14-32-32-32m116 0c-17 0-31 14-31 31l0 121c0 18 14 32 31 32 18 0 31-14 31-32l0-120c0-18-13-32-31-32m116 0c-17 0-31 14-31 31l0 121c0 18 14 32 31 32 18 0 32-14 32-32l0-120c0-18-15-32-32-32m116 0c-17 0-31 14-31 31l0 121c0 18 14 32 31 32 17 0 31-14 31-32l0-121c0-17-14-31-31-31m56 224c8 0 14 6 20 14 8 12 8 31 0 40-4 6-9 12-15 15l-208 109c-15 9-39 9-55 0l-207-108c-6-4-11-9-15-15-8-9-9-29 0-40 6-8 12-15 20-15l460 0z"/>
<glyph glyph-name="file" unicode="&#88;" d="M123 56c-28 0-51 23-51 52l0 317-5 0c-29 0-52-23-52-51l0-323c0-28 23-51 52-51l291 0c29 0 52 23 52 51l0 5z m259 324l83 0-113 104 0-74c0-17 14-30 30-30z m0-29c-33 0-59 26-59 59l0 102-169 0c-29 0-52-23-52-51l0-323c0-28 23-51 52-51l291 0c29 0 52 23 52 51l0 213z m31-183l-228 0c-9 0-16 7-16 16 0 9 7 15 16 15l228 0c8 0 15-6 15-15 0-9-7-16-15-16z m0 79l-228 0c-9 0-16 6-16 15 0 9 7 16 16 16l228 0c8 0 15-7 15-16 0-9-7-15-15-15z"/>
<glyph glyph-name="filter" unicode="&#89;" d="M486 464c7 8 10 20 5 31-5 10-15 16-24 16l-422 0c-10 0-19-6-24-16-5-11-2-23 5-31l123-123 46-46 0-268c0-7 3-13 7-18 5-5 12-8 18-8 8 0 14 3 18 8l1 1 80 106 0 180 45 45c0 0 0 0 1 1l49 49 41 41z"/>
<glyph glyph-name="finance" unicode="&#90;" d="M491 10l-470 0c-11 0-21 10-21 21 0 12 10 21 21 21l470 0c11 0 21-9 21-21 0-11-10-21-21-21z m-341 97c0-15-11-26-26-26l-94 0c-14 0-26 11-26 26l0 131c0 14 12 26 26 26l94 0c15 0 26-12 26-26z m178 0c0-15-12-26-26-26l-95 0c-14 0-25 11-25 26l0 210c0 14 11 26 25 26l95 0c14 0 26-12 26-26z m177 0c0-15-12-26-26-26l-94 0c-15 0-26 11-26 26l0 180c0 14 11 26 26 26l94 0c15 0 26-12 26-26l0-180z m-41 310l23-23c3-3 7-4 11-2 4 1 6 5 6 9l0 81c0 11-9 20-19 20l-82 0c-4 0-8-3-9-7-1-4-1-8 2-10l23-23z m-438-116c-6 0-13 2-17 8-7 8-5 22 4 29l166 129c6 5 13 6 20 4l177-68 53 52c8 9 21 9 30 0 8-8 8-21 0-29l-63-62c-5-6-14-8-22-5l-178 68-157-122c-4-3-8-4-13-4z"/>
<glyph glyph-name="finger" unicode="&#48;" d="M327 72l-154 0c-10 0-19-9-19-19l0-34c0-10 9-19 19-19l154 0c11 0 19 9 19 19l0 34c0 10-9 19-19 19m46 233c-1 1-2 2-2 2-1 1-1 1-2 2 0 0-1 1-2 2 0 0-1 1-2 1 0 1-1 1-2 2-1 0-1 1-2 1-1 1-2 1-2 1-1 1-2 1-4 1 0 0-1 1-2 1-2 0-4 0-6 0-2 0-4 0-5 0-1 0-1-1-2-1-1 0-3 0-4-1 0 0-1 0-2-1-1 0-2-1-2-1-2-1-2-1-3-2 0 0-1-1-2-1 0-1-1-2-2-2 0-1-1-1-1-2-1-1-2-1-2-2 0-1-1-1-1-1-2-5-4-10-4-16l0 21c0 17-14 31-30 31-17 0-30-14-30-31l0 30c0 17-14 31-30 31-17 0-31-14-31-31l0 142c0 17-13 31-30 31-17 0-31-14-31-31l0-266c0 0 0 0 0 0 0-1-1-7-1-14 0-23 1-68 15-90 7-12 21-20 37-20l149 0c3 0 6 1 9 1 18 4 31 19 34 37 0 2 0 4 0 5l0 155c0 6-1 12-4 16-1-1-1-1-1 0"/>
<glyph glyph-name="flag" unicode="&#49;" d="M449 409l-151 0 0 36c0 9-7 15-16 15l-173 0 0 37c0 8-7 15-16 15l-30 0c-8 0-16-7-16-15l0-482c0-8 8-15 16-15l30 0c9 0 16 7 16 15l0 164 85 0 0-36c0-9 7-16 15-16l240 0c8 0 15 7 15 16l0 251c1 8-7 15-15 15z"/>
<glyph glyph-name="fleet-management" unicode="&#50;" d="M505 218l0 62-7 23-3 10-15 54 0 3-1 2c0 1 0 2-1 3-1 2-2 4-3 6-4 6-10 10-15 10l-81 0 0 41c0 10-9 19-20 19l-228 0c-11 0-20-9-20-19l0-25 180 0c22 0 41-18 41-41l0-25 64 0 0 31 59 0 1-2 4-15 11-36 2-5 2-7 1-4-32 0 0-1 1-3 17-60 3-11 7-26 1-2 0-4 27 0c6 0 11 5 11 12 1 4-2 8-6 10z m-146-85c-20 0-36-16-36-37 0-20 16-36 36-36 20 0 36 16 36 36l0 1c0 20-16 36-36 36z m-264 0c-19 0-36-16-36-37 0-20 17-36 36-36 20 0 36 16 36 36l0 1c0 20-16 36-36 36z m351-11l0 69-7 26-4 10-17 61 0 2-1 3c-1 2-1 3-1 4-1 2-2 5-4 7-4 6-11 11-17 11l-90 0 0 45c0 12-10 21-22 21l-254 0c-11 0-21-9-21-21l0-238c-5-2-8-7-8-12 0-7 6-13 13-13l30 0c0 28 24 52 52 52 28 0 51-24 51-52l162 0c0 28 23 52 51 52 28 0 52-24 52-52l30 0c7 0 13 6 13 13 0 5-4 10-8 12z m-56 95l-65 0 0 76 65 0 2-3 4-16 13-39 2-7 2-7 1-5-24 0z"/>
<glyph glyph-name="forward" unicode="&#51;" d="M307 456c-10-4-15-14-15-24l0-89-244 0c-26-2-46-23-46-49l0-75c0-27 20-48 46-50l244 0 0-88c0-11 5-20 15-24 11-5 23-3 31 5l156 156c21 22 21 55 0 77l-157 157c-7 7-19 9-30 4z"/>
<glyph glyph-name="forward-caret" unicode="&#52;" d="M148 0c-10 0-21 4-29 12-15 16-15 42 0 58l187 186-186 187c-16 15-16 41 0 57 16 16 42 16 57 0l215-215c16-16 16-42 0-58l-215-215c-8-8-18-12-29-12z"/>
<glyph glyph-name="gps-1" unicode="&#53;" d="M271 509c-5 0-10 0-16 0-1 0-2 0-3 0-2 0-4 0-6 0-100-5-179-88-179-189 0-10 1-19 2-29 0 0 0 0 0 0 0-3 1-6 1-9 0 0 0 0 0 0 1-3 2-6 2-9 0 0 0 0 0 0 3-12 7-24 12-35 26-61 171-235 171-235 0 0 146 174 172 235 11 25 18 53 18 82 0 100-76 181-174 189z m-15-277c-49 0-88 40-88 88 0 49 40 88 88 88 49 0 88-40 88-88 0-48-39-88-88-88z"/>
<glyph glyph-name="health-wellness" unicode="&#54;" d="M21 260l178 0 16 48c2 7 8 11 14 11 7 0 13-5 15-12l22-86 31 129c1 7 8 12 14 12 7 0 14-4 16-11l32-107 3 7c3 5 8 9 14 9l115 0c4 6 7 12 10 19 7 17 11 35 11 54 0 77-62 140-140 140-48 0-91-25-116-62-25 37-68 62-116 62-78 0-140-63-140-140 0-20 4-38 11-54 3-7 6-14 10-19z m365-32l-16-32c-3-6-9-9-15-8-6 0-12 5-13 11l-28 89-32-135c-2-7-8-12-15-12-7 0-14 5-15 12l-24 94-3-8c-2-7-8-11-15-11l-171 0c66-99 217-189 217-189 0 0 150 90 217 189l-87 0z"/>
<glyph glyph-name="healthcare" unicode="&#55;" d="M512 222c0-24-19-43-42-43l-137 0 0-137c0-23-19-42-43-42l-68 0c-24 0-43 19-43 42l0 137-137 0c-23 0-42 20-42 43l0 68c0 24 19 43 42 43l137 0 0 137c0 23 19 42 43 42l68 0c23 0 43-19 43-42l0-137 137 0c23 0 42-20 42-43z"/>
<glyph glyph-name="home" unicode="&#56;" d="M508 279l-65 53 0 126c0 8-8 15-16 15l-51 0c-9 0-16-7-16-15l0-59-82 67c-6 5-15 7-22 7-8 0-16-2-22-7l-130-105-100-82c-2-2-4-6-4-9 0-4 2-8 4-10 3-3 6-4 10-4l55 0 0-192c0-14 12-25 26-25l116 0 0 115 90 0 0-115 116 0c14 0 26 11 26 26l0 191 56 0c4 0 6 1 9 4 2 2 4 6 4 10 0 3-2 7-4 9z"/>
<glyph glyph-name="home-1" unicode="&#57;" d="M508 279l-65 53 0 126c0 8-8 15-16 15l-51 0c-9 0-16-7-16-15l0-59-82 67c-6 5-15 7-22 7-8 0-16-2-22-7l-130-105-100-82c-2-2-4-6-4-9 0-4 2-8 4-10 3-3 6-4 10-4l55 0 0-192c0-14 12-25 26-25l116 0 0 115 90 0 0-115 116 0c14 0 26 11 26 26l0 191 56 0c4 0 6 1 9 4 2 2 4 6 4 10 0 3-2 7-4 9z"/>
<glyph glyph-name="info" unicode="&#33;" d="M256 512c-141 0-256-115-256-256 0-141 115-256 256-256 141 0 256 115 256 256 0 141-115 256-256 256z m-7-98c20 0 35-16 35-35 0-20-16-35-35-35-19 0-34 16-34 35 0 19 15 35 34 35z m79-294l-144 0c-11 0-21 9-21 20 0 12 10 21 21 21l45 0 0 121-31 0c-12 0-21 9-21 21 0 11 9 20 21 20l64 0c11 0 21-9 21-20l0-142 45 0c11 0 21-9 21-20 0-11-10-21-21-21z"/>
<glyph glyph-name="ip-icon" unicode="&#34;" d="M66 358l-15 0c-28 0-51-23-51-51l0-102c0-28 23-51 51-51l410 0c28 0 51 23 51 51l0 102c0 28-23 51-51 51z m368 0l-343 0m278-115c-9 0-15 6-15 15 0 9 6 15 15 15 9 0 16-6 16-15 0-9-7-15-16-15z m68 0c-8 0-15 6-15 15 0 9 7 15 15 15 9 0 16-6 16-15 0-9-7-15-16-15z"/>
<glyph glyph-name="lightbulb" unicode="&#35;" d="M256 512c-81 0-147-65-147-146 0-53 49-103 49-103 13-12 23-26 23-44l0-2c0-18 14-32 31-32l87 0c18 0 32 15 32 32l0 2c0 18 10 32 22 44 0 0 49 50 49 103 1 81-65 146-146 146z m-5-60c-21 0-40-9-54-22-14-14-23-33-23-54 0-6-5-11-11-11-6 0-11 5-11 11 0 55 44 99 99 99 6 0 11-5 11-11 0-7-5-12-11-12z m79-307c0-10-8-17-18-17l-112 0c-11 0-19 7-19 17 0 9 8 17 19 17l112 0c10 0 18-8 18-17z m0-57c0-9-8-17-18-17l-112 0c-11 0-19 8-19 17 0 10 8 17 19 17l112 0c10 1 18-7 18-17z m-132-38l116 0c0 0-6-50-59-50-52 0-57 50-57 50z"/>
<glyph glyph-name="lightning" unicode="&#36;" d="M343 509c0 0 0 0 0 0 0 0 0 0 0 0 0 0 0 0 0 1 0 0 0 1 0 1-1 1-2 0-2 0-17-21-34-42-51-62-63-77-126-155-191-233 0 0 0 0 0-1-1 0-1-2 0-3 0 0 1 0 1-1 1 0 1 0 1 0 43 0 84 0 125 0 3 0 5-1 8-3 2-2 4-6 2-10 0-1 0-1 0-1 0-1-1-1-1-2-22-64-44-128-66-191l0 0 0 0c0 0 0 0 0-1 0 0 0 0 0 0 0 0 0 0 0-1 0 0 1-1 1-1 0 0 1 0 2 1 0 0 0 0 0 0 80 97 160 194 241 294l2 1c0 1 0 2 0 2 0 1-1 1-2 1 0 0 0 0 0 0-43 0-84 0-124 0-1 0-2 0-3 0-2 1-5 1-6 3-3 3-4 7-3 11 0 0 0 0 0 1 0 0 0 0 1 1 21 62 42 125 64 188 0 1 0 2 0 2m-170-504c0 0 0 0 0 0z"/>
<glyph glyph-name="link" unicode="&#37;" d="M193 122l-46-47c-8-7-20-7-28 0l-43 44c-7 7-7 20 0 27l155 155c7 7 20 7 27 0l35-35 50 50-35 35c-4 3-8 7-13 10-1 1-2 2-3 2-1 1-2 2-4 2-1 1-2 2-3 3-1 0-2 1-3 1-2 1-3 2-5 2-1 0-1 1-2 1-4 1-7 2-12 3 0 0 0 0-1 0-1 1-3 1-5 1-1 0-2 1-3 1-2 0-3 0-5 0-1 0-2 0-3 0-2 0-4 0-5 0-22 0-44-9-60-26l-155-155c-35-35-35-92 0-126l44-44c16-17 39-26 63-26 24 0 47 9 63 26l74 73c-27-1-54 7-77 23z m249 364c-16 17-39 26-63 26-24 0-47-9-63-26l-77-78c26 1 54-6 76-22l50 50c4 4 9 6 14 6 5 0 10-2 14-6l43-43c7-8 7-20 0-28l-159-158c-3-4-8-6-13-6-5 0-10 2-14 6l-35 35-50-50 36-35c35-35 91-35 126 0l159 159c35 35 35 91 0 126z"/>
<glyph glyph-name="lock" unicode="&#38;" d="M114 292c0 32-3 62 0 91 6 69 63 125 130 129 73 5 137-41 151-112 5-26 3-53 4-80 1-9 0-18 0-28 13 0 24 0 35 0 15 0 21-5 21-20 0-84 0-168 0-252 0-15-6-20-20-20-119 0-238 0-357 0-15 0-21 5-21 20 0 84 0 167 0 250 0 16 6 21 21 22 11 0 22 0 36 0z m58 1c57 0 115 0 173 0 0 27 1 54 0 80-2 42-37 79-78 82-46 3-88-25-94-68-5-31-1-63-1-94z"/>
<glyph glyph-name="mail" unicode="&#39;" d="M506 325c-4 2-6 0-12-1l-223-80c-3-1-10-3-15-3-5 0-10 1-14 2l-224 81c-6 1-8 3-12 1-3-2-6-6-6-10l0-177c0-28 23-51 51-51l410 0c28 0 51 23 51 51l0 177c0 4-3 8-6 10z m-20 100l-460 0c-15 0-26-11-26-26 0 0 0-16 0-21 0-18 2-17 29-27 1 0 210-76 210-76 6-1 12-4 17-4 6 0 12 3 17 4 0 0 209 76 210 76 27 10 29 9 29 27 0 5 0 21 0 21 0 15-11 26-26 26z"/>
<glyph glyph-name="manage-sub-accounts" unicode="&#40;" d="M455 512l-286 0c-31 0-56-26-56-57l0-25 260 0c31 0 57-26 57-57l0-260 25 0c31 0 57 25 57 56l0 286c0 31-26 57-57 57m-112-113l-286 0c-31 0-57-25-57-56l0-286c0-31 26-57 57-57l285 0c32 0 57 26 57 57l0 286c0 31-25 56-56 56z m-143-69c30 0 55-25 55-56 0-31-25-56-55-56-31 0-56 25-56 56 0 31 25 56 56 56z m89-140l-15-96c-2-15-11-25-25-25l-98 0c-14 0-24 10-26 25l-14 96c-2 11 5 19 25 25l19 5c12-11 28-17 45-17 18 0 33 6 46 17l19-5c19-6 26-14 24-25z"/>
<glyph glyph-name="map" unicode="&#41;" d="M66 6c6-4 14-5 22-5l62 0 0 51c-10 2-19 5-28 11z m294 505c-3 0-5 0-8 0 0 0-1 0-2 0-1 0-2 0-3 0-55-2-98-47-98-102 0-5 1-11 1-16 0-1 1-3 1-4 0 0 0 0 0-1 1-1 1-3 1-5 2-6 4-12 7-18 14-33 93-128 93-128 0 0 78 95 92 128 6 13 10 28 10 44 0 54-41 97-94 102z m-8-150c-27 0-48 21-48 48 0 26 21 47 48 47 26 0 47-21 47-47 1-27-21-48-47-48z m-170-308l0-52 249 0c24 0 41 16 41 39l0 72-229 0c-7-27-29-52-61-59z m-32 158l0 217-62 0c-24 0-48-20-48-44l0-241 46 0c5 37 27 63 64 68z m225 2l-24-30-24 30c-14 16-83 100-98 136-8 18-13 38-13 58 0 7 1 16 2 21l-36 0 0-220c32-8 59-34 63-65l227 0 0 206c-15-36-83-120-97-136z m-287-101l-48 0 0-72c0-4 2-8 3-12l57 56c-6 8-10 17-12 28z m126 19c0 27-22 49-49 49-27 0-49-22-49-49 0-27 22-49 49-49 28 0 49 22 49 49z"/>
<glyph glyph-name="maximize" unicode="&#42;" d="M473 512l-158 0c-8 0-15-5-18-13-3-7-1-15 4-20l45-44-53-54c0 0 0 0 0 0l-215-215-45 44c-5 5-13 7-20 4-8-2-13-10-13-17l0-158c0-22 17-39 38-39l158 0c8 0 16 5 19 13 2 7 0 15-5 20l-44 44 188 189c0 0 1 0 1 1l80 79 44-44c6-5 13-7 20-4 8 2 13 10 13 18l0 158c0 21-18 38-39 38z"/>
<glyph glyph-name="menu" unicode="&#43;" d="M41 371l430 0c23 0 41 19 41 41 0 23-18 41-41 41l-430 0c-23 0-41-18-41-41 0-22 18-41 41-41z m430-71l-430 0c-23 0-41-18-41-41 0-22 18-41 41-41l430 0c23 0 41 19 41 41 0 23-18 41-41 41z m0-159l-430 0c-23 0-41-19-41-41 0-23 18-41 41-41l430 0c23 0 41 18 41 41 0 22-18 41-41 41z"/>
<glyph glyph-name="minimize" unicode="&#44;" d="M484 284c2 7 0 14-4 19l-45 45 68 68c12 14 12 35-2 48l-37 38c-13 13-34 14-48 2l-68-69-45 45c-5 5-12 6-19 4-8-3-13-11-13-18l0-158c0-21 17-38 38-38l157 0c8 1 15 6 18 14z m-456-55c-2-7 0-15 4-20l45-44-68-69c-12-14-11-35 2-48l37-38c13-13 34-14 48-2l68 68 45-44c5-5 12-7 19-4 8 2 13 10 13 18l0 157c0 21-17 38-38 38l-157 0c-8 0-15-4-18-12z"/>
<glyph glyph-name="minus" unicode="&#45;" d="M308 203l150 0c29 0 53 24 53 53 0 29-24 53-53 53l-405 0c-29 0-52-24-52-53 0-29 23-53 52-53z"/>
<glyph glyph-name="mobile-command-center" unicode="&#46;" d="M106 143c-22 0-39-18-39-40 0 0 0 0 0 0 0-22 17-40 39-40 23 0 40 18 40 39l0 1c0 22-17 40-40 40z m299 0c-22 0-39-18-40-40 0 0 0 0 0 0 0-22 18-40 40-40 22 0 39 18 40 39l0 1c0 22-18 40-40 40z m98-12l0 78c0 0-33 119-34 120-1 3-3 5-4 7-5 7-12 13-20 13l48 0c14 0 22 11 17 24l-15 52c-3 14-18 24-31 24l-431 0c-14 0-24-11-24-24l0-294c-5-2-9-7-9-13 0-8 7-15 15-15l35 0c0 32 25 57 56 57 32 0 57-26 57-57l185 0c1 32 26 57 57 57 31 0 57-26 57-57l35 0c8 0 15 7 15 15 0 6-4 11-9 13z m-379 84c-2-3-5-4-8-4-3 0-6 1-8 4-24 24-37 56-37 89 0 34 13 66 37 90 5 5 12 5 17 0 5-5 5-12 0-17-20-19-30-45-30-73 0-27 10-53 30-72 5-5 5-13-1-17z m37 60c5-5 5-14 0-18-3-3-6-4-9-4-4 0-7 1-10 4-12 13-19 29-19 47 0 18 7 35 19 48 5 5 14 5 18 0 5-5 5-13 0-18-7-8-12-18-12-29 0-12 5-22 13-30z m39 11c-11-5-22-1-27 9-6 10-1 22 8 27 10 5 22 1 27-8 6-11 1-22-8-28z m28-33c-3 0-6 1-9 4-5 5-5 13 0 18 8 7 12 18 12 29 0 11-4 21-12 29-5 5-5 13 0 18 5 5 13 5 18 0 13-13 20-30 20-48 0-18-8-34-20-47-2-2-5-3-9-3z m44-38c-2-3-5-4-8-4-3 0-6 1-8 4-5 4-5 12 0 17 19 19 30 45 30 72 0 28-11 54-30 73-5 5-5 12 0 17 5 5 12 5 17 0 24-24 37-56 37-90 0-33-14-66-38-89z m94 23l0 87 74 0 27-87z"/>
<glyph glyph-name="networking-monitoring" unicode="&#47;" d="M489 70l-466 1c-13 0-23 10-23 23 0 13 10 23 23 23l466-1c13 0 23-10 23-23 0-13-10-23-23-23z m-64 346c9 0 18-9 18-18l0-248c0-9-9-17-18-17l-338 0c-9 0-18 8-18 17l0 248c0 9 9 18 18 18l338 0m0 26l-338 0c-24 0-44-20-44-44l0-248c0-24 20-44 44-44l338 0c24 0 44 20 44 44l0 248c0 24-20 44-44 44z m-152-219l-41 0c21-21 48-36 78-44-14 11-26 25-37 44z m79 136l0 29-99 0c-1-10-2-19-2-29z m-20-136l-48 0c15-24 33-41 54-49 5-1 10-1 15-1l0 30c-11 1-18 10-21 20z m20 126l-102 0c1-45 12-85 28-117l54 0c2 10 10 18 20 20z m-176 0c1-45 19-86 47-117l46 0c-17 32-27 73-27 117z m186-98c9-2 17-9 18-19l36 0 0 117-54 0z m41 137l-41 0 0-29 54 0 0 16c0 7-6 13-13 13z m-41-185l0-30c5 0 10 0 14 1 15 5 28 15 40 29l0 20-36 0c-1-10-9-17-18-20z m-210 151c0 12 1 23 3 34l-45 0c-7 0-14-6-14-13l0-203c0-7 7-13 14-13l184 0c-82 26-142 104-142 195z m90 5c0 10 1 19 2 29l-64 0c-3-10-4-19-4-29z"/>
<glyph glyph-name="optical-network" unicode="&#58;" d="M315 338c0 4 0 6 0 8-1 52 0 100 0 151 0 7 0 7 1 9 2 2 18 0 27-3 3-2 5-2 5-7 0-42 1-84 1-126 0-3-1-6-2-8-11-9-16-13-28-23-1 0-2 0-4-1m-231-23c0 55 0 143 0 143 0 0-1 28 19 36 25 8 40 9 65 12 37 4 51 6 89 5 7 0 12 0 19 0 6 0 8-2 8-8 1-21 0-46 1-68 0-35 0-70 1-107 0-5-4-9-8-12-17-13-16-9-35-24-5-3-7-7-7-13 1-46 1-102 1-149 0-8 0-8-8-8-43 3-82 7-124 20-1 0-1 0-1 1-17 6-19 7-19 25 0 53 0 95 0 147z m296 184c14-2 16-3 29-9 16-8 14-36 14-36 0 0 0-38 1-71 1-80 1-156 3-237 0-7-3-10-9-12-18-7-36-11-56-13-31-2-55-2-87 0-6 0-7 2-7 8 0 45-1 84-1 129 0 5 1 8 5 11 37 29 64 54 101 83 6 4 8 9 8 16-1 40-1 80-1 119 0 4 0 8 0 12m-294-382c112-32 225-35 339-9 0-5 2-18 2-18l0-44c0 0 0-27-18-32-17-6-30-8-51-10-32-3-64-4-96-4-49 1-92 5-139 17-9 2-12 4-22 6-19 7-15 32-15 32l0 59c0 0 0-2 0-2"/>
<glyph glyph-name="outgoing-calls" unicode="&#59;" d="M287 457c-2-6-1-12 3-16l38-38-67-69c-10-12-10-30 1-41l33-32c11-11 29-12 41-2l68 68 38-38c4-4 10-6 16-3 7 2 11 8 11 15l0 135c0 18-14 32-32 32l-135 0c-7 0-13-4-15-11z m-110-70l-38 105c0 0-6 15-27 15l-28-4c0 0-94-12-81-126 0 0 43-272 345-364 0 0 120-40 154 56 0 0 4 19 8 41 0 0 4 13-12 23l-93 54c0 0-16 12-29-1 0 0-20-17-41-41l-9-12c0 0-5-6-20-1 0 0-91 29-173 167 0 0-7 10 7 24 0 0 15 13 34 34 0 0 10 8 5 24z"/>
<glyph glyph-name="pause" unicode="&#60;" d="M144 3c-30 0-54 24-54 54l0 398c0 30 24 54 54 54 30 0 54-24 54-54l0-398c0-30-24-54-54-54z m224 0c-30 0-55 24-55 54l0 398c1 30 25 54 55 54 30 0 54-24 54-54l0-398c0-30-24-54-54-54z"/>
<glyph glyph-name="pencil" unicode="&#61;" d="M359 380c-8 5-14 9-15 9 0 0-7 5-14 10l-30 20c-8 5-18 3-24-5l-173-259c-5-8-3-20 5-25l29-19c9-5 15-10 15-10 0 0 7-4 14-10l15-10c9-5 19-3 25 5l172 259c5 9 3 20-4 25z m-275-378c-9-5-15 0-13 9l13 96c1 9 8 12 17 7l69-46c8-5 8-13-1-18z m324 388c-5-8-16-10-25-5l-73 49c-8 6-10 16-5 25l31 46c6 8 16 10 25 4l73-49c8-5 10-16 4-24z"/>
<glyph glyph-name="people" unicode="&#62;" d="M170 285c58 0 105 48 105 107 0 60-47 108-105 108-57 0-104-48-104-108 0-59 47-107 104-107z m123-5l-35 9c-24-20-54-33-87-33-33 0-63 13-87 33l-36-9c-38-11-51-27-47-48l28-183c4-28 22-49 48-49l188 0c27 0 44 21 48 49l28 182c3 21-10 38-48 49z m96 77c41 0 75 35 75 77 0 43-34 78-75 78-42 0-76-35-76-78 0-43 34-77 76-77z m88-4l-26 7c-17-15-38-24-62-24-24 0-46 9-62 24l-27-7c-28-8-37-19-34-34l0-3 34-9c64-18 72-53 68-79l-11-75 99 0c20 0 32 14 35 35l20 131c3 15-6 26-34 34z"/>
<glyph glyph-name="phone" unicode="&#63;" d="M369 0l-226 0c-26 0-47 22-47 48l0 416c0 26 21 48 47 48l226 0c25 0 46-22 46-48l0-416c1-26-20-48-46-48z m-226 484c-10 0-19-9-19-20l0-416c0-11 8-20 19-20l226 0c10 0 19 9 19 20l0 416c0 11-9 20-19 20z m28-29c-11 0-20-9-20-20l0-317c0-11 9-20 19-20l172 0c11 0 19 8 19 20l0 317c0 11-9 20-19 20z m100-391c0 9-7 16-15 16-9 0-16-7-16-16 0-9 7-16 16-16 8 0 15 7 15 16z"/>
<glyph glyph-name="phone-receiver" unicode="&#64;" d="M177 387l-38 105c0 0-6 15-27 15l-28-4c0 0-94-12-81-126 0 0 43-272 345-364 0 0 120-40 154 56 0 0 4 19 8 41 0 0 4 13-12 23l-93 54c0 0-16 12-29-1 0 0-20-17-41-41l-9-12c0 0-5-6-20-1 0 0-91 29-173 167 0 0-7 10 7 24 0 0 15 13 34 34 0 0 10 8 5 24z"/>
<glyph glyph-name="phone-signal" unicode="&#91;" d="M71 56c0-6-6-12-12-12l-47 0c-6 0-12 6-12 12l0 61c0 6 6 12 12 12l47 0c6 0 12-6 12-12z m111 0c0-6-6-12-12-12l-47 0c-6 0-12 6-12 12l0 146c0 6 6 12 12 12l47 0c6 0 12-6 12-12z m110 0c0-6-6-12-12-12l-47 0c-6 0-12 6-12 12l0 231c0 6 6 11 12 11l47 0c6 0 12-5 12-11z m110 0c0-6-6-12-12-12l-47 0c-6 0-12 6-12 12l0 315c0 7 6 12 12 12l47 0c6 0 12-5 12-12z m110 0c0-6-6-12-12-12l-47 0c-6 0-12 6-12 12l0 400c0 6 6 12 12 12l47 0c6 0 12-6 12-12z"/>
<glyph glyph-name="photo" unicode="&#93;" d="M36 405c0 14 12 25 26 25l383 0 0 10c0 14-11 25-26 25l-393 0c-15 0-26-11-26-25l0-302c0-14 11-26 26-26l10 0z m450-5l-393 0c-15 0-26-12-26-26l0-302c0-14 11-25 26-25l393 0c15 0 26 11 26 25l0 302c0 14-12 26-26 26z m-236-69c18 0 32-14 32-32 0-18-14-32-32-32-18 0-32 14-32 32 0 18 15 32 32 32z m-31-224l-97 0 96 142 49-71 73 108 123-178z"/>
<glyph glyph-name="plane" unicode="&#94;" d="M20 204c0 0-2 10 24 27 2 2 6 7 6 10 0 5-9 10-9 10l-40 29 19 19c0 0 6 3 10 2 3-1 15-4 20-6 17-6 42-16 58-22 4-2 9-5 12-4 3 0 12 5 14 6 12 6 51 26 68 33 15 6 6 15 6 15 0 0-177 139-181 149-4 8 5 11 5 11l23 11 291-115c0 0 91 40 103 44 11 3 50 14 61-10 11-25-25-46-35-52-11-5-103-43-103-43l-119-289-24-10c0 0-9-4-12 5-3 9 19 234 19 234 0 0 0 12-15 6-17-7-58-22-71-26-2-1-11-4-14-6-2-2-4-7-5-11-7-16-17-41-25-57-2-5-8-16-10-18-2-4-7-6-7-6l-29-1 9 49c0 0 2 10-1 13-3 3-9 3-12 3-30-7-36 0-36 0"/>
<glyph glyph-name="play" unicode="&#95;" d="M52 442c0 63 43 87 96 52l273-176c52-34 52-91 0-125l-273-176c-53-34-96-10-96 53z"/>
<glyph glyph-name="plus" unicode="&#96;" d="M459 309l-150 0 0 150c0 29-24 53-53 53-29 0-52-24-52-53l0-150-151 0c-29 0-53-24-53-53 0-29 24-52 53-52l150 0 0-151c0-29 24-53 53-53 29 0 52 24 52 53l0 151 151 0c29 0 53 23 53 52 0 29-24 53-53 53z"/>
<glyph glyph-name="power" unicode="&#123;" d="M256 0c-128 0-232 104-232 232 0 87 47 166 124 206 15 7 32 2 39-13 7-14 2-31-12-38-57-31-93-90-93-155 0-96 78-175 174-175 97 0 175 79 175 175 0 65-36 125-94 155-14 7-19 24-12 38 7 15 24 20 39 13 77-40 125-119 125-206-1-128-105-232-233-232z m2 511l-4 1c-14 0-26-12-26-27l0-176c0-15 11-26 26-26l4-1c15 0 26 12 26 27l0 176c0 15-11 26-26 26z"/>
<glyph glyph-name="power-user" unicode="&#124;" d="M256 292c59 0 107 50 107 110 0 61-48 110-107 110-59 0-108-49-108-110 0-60 49-110 108-110z m125-5l-36 10c-24-21-55-34-89-34-34 0-64 13-88 34l-37-10c-39-11-52-27-49-49l29-188c4-29 22-51 49-51l192 0c27 0 45 22 49 51l29 187c3 22-10 39-49 50z m-172-246l42 96-48 0 46 87 59 0-35-57 54 2z"/>
<glyph glyph-name="printer" unicode="&#125;" d="M308 298l-179 0c-9 0-15 6-15 15 0 9 6 15 15 15l179 0c9 0 16-6 16-15 0-8-7-15-16-15z m-58 57l-121 0c-9 0-15 6-15 15 0 9 6 15 15 15l120 0c9 0 16-6 16-15 0-9-7-15-15-15z m211-98l-1 0 0 83-129 120-214 0c-28 0-51-23-51-51l0-152-15 0c-28 0-51-23-51-51l0-103c0-28 23-51 51-51l410 0c28 0 51 23 51 51l0 103c0 28-23 51-51 51z m-112 152l61-56-35 0c-15 0-26 11-26 25z m-258 0c0 14 11 25 26 25l207 0 0-56c0-28 23-51 51-51l59 0 0-70-343 0z m278-268c-9 0-15 7-15 15 0 9 6 16 15 16 9 0 16-7 16-16 0-8-7-15-16-15z m68 0c-8 0-15 7-15 15 0 9 7 16 15 16 9 0 16-7 16-16 0-8-7-15-16-15z"/>
<glyph glyph-name="productivity" unicode="&#126;" d="M497 454c-9 10-21 15-35 15-12 0-25-5-34-15l-192-190-83 85c-9 9-22 14-35 14-14 0-25-5-35-14-6-6-10-13-12-20-2-5-2-9-2-14 0-5 0-10 2-16 2-7 6-14 12-20l117-118 3-2 1-1c9-8 20-12 32-12 0 0 1 0 2 0 11 1 21 4 29 11l230 229c19 18 19 50 0 68z m-108-221l0-147c0-6-4-11-10-11l-336 0c-6 0-11 5-11 11l0 336c0 6 5 10 11 10l316 0 31 31c-4 1-8 2-12 2l-335 0c-24 0-43-20-43-43l0-336c0-24 19-43 43-43l336 0c23 0 43 19 43 43l0 179z m33 189c0 7-3 15-6 21l-27-27 0-138 33 31z"/>
<glyph glyph-name="question-mark" unicode="&#92;" d="M96 378c0 20 7 41 19 62 13 20 32 38 58 51 25 14 54 21 87 21 31 0 58-6 82-17 24-11 42-27 55-47 13-19 20-41 20-64 0-18-4-34-11-48-8-13-17-25-27-35-10-10-28-27-54-50-8-7-13-13-18-18-5-5-8-9-10-14-2-4-3-8-5-12-1-4-3-11-5-22-4-22-17-34-38-34-12 0-21 4-28 11-8 7-11 18-11 33 0 18 2 33 8 47 6 13 13 24 22 34 9 10 22 22 37 36 14 11 24 21 30 27 6 6 11 13 15 21 5 7 7 15 7 24 0 17-7 31-19 43-13 12-30 18-49 18-24 0-41-7-52-19-12-11-21-29-29-52-7-24-21-36-41-36-12 0-23 4-31 13-8 8-12 17-12 27z m156-378c-12 0-24 4-34 13-9 8-14 20-14 35 0 14 5 25 14 34 9 10 21 14 34 14 14 0 25-4 34-14 10-9 14-20 14-34 0-15-4-26-14-35-10-8-21-13-34-13z"/>
<glyph glyph-name="recording" unicode="&#57344;" d="M512 256c0-142-114-257-256-257-142 1-256 115-256 257 0 142 114 256 256 256 142 0 256-114 256-256"/>
<glyph glyph-name="refresh" unicode="&#57345;" d="M434 251c-20 0-36-16-36-37 0-78-63-142-142-142-79 0-142 64-142 142 0 78 63 142 141 142l0-67c0-5 4-11 9-14 6-3 14-1 18 3l92 92c13 13 13 33 0 45l-92 92c-5 5-12 7-18 3-6-2-9-8-10-14l0-67c-117-1-212-97-212-215 0-118 96-214 214-214 118 0 214 96 214 214 0 21-16 37-36 37z"/>
<glyph glyph-name="reply" unicode="&#57346;" d="M212 405c0-14 0-27 0-41 0-5 1-7 6-7 57-6 110-21 161-46 24-13 46-29 65-48 32-33 48-73 58-118 6-30 9-60 9-91 0-8-3-13-9-13-5-1-10 3-11 11-8 27-21 53-40 74-33 39-76 62-127 69-35 6-70 5-105-1-6-1-8-3-8-9 1-24 0-48 1-72 0-12-6-20-16-25-10-4-20-3-28 4-11 11-22 21-32 32-14 14-29 29-43 43-26 25-52 50-77 76-20 20-19 51 1 72 23 23 46 46 69 69 26 26 52 51 78 77 8 8 16 12 28 9 11-2 20-14 20-26 0-13 0-26 0-39z"/>
<glyph glyph-name="reply-all" unicode="&#57347;" d="M270 377c0-11 0-22 0-34 0-4 1-5 5-6 46-5 89-16 130-37 20-10 37-23 53-39 26-26 39-60 47-95 5-24 7-49 7-74 0-6-2-9-6-10-5 0-8 3-10 9-6 23-16 43-32 60-27 31-62 50-102 56-28 4-57 3-85-1-5-1-7-3-7-8 1-19 0-39 0-58 0-10-5-16-13-20-8-3-16-3-23 3-8 9-17 18-26 26-11 12-23 23-34 35-21 20-42 41-63 62-16 15-15 41 1 58 18 19 37 37 56 56 21 21 42 41 63 61 6 7 13 10 22 8 9-2 16-12 16-21 1-10 1-21 1-31z m-102-17c-19-19-38-37-56-56-16-17-17-43-1-58 19-19 38-38 57-57z m-14-196c-8 8-16 16-24 24-13 13-26 25-39 38-26 27-26 69 1 97 20 20 40 40 57 56 7 7 13 13 19 19l0 11c0 8-5 15-12 19-8 4-17 2-23-4l-121-120c-16-17-16-43 0-59l120-121c6-6 16-7 24-4 7 4 12 11 12 19l0 11c-5 5-9 10-14 14z"/>
<glyph glyph-name="router" unicode="&#57348;" d="M353 22c0-12-9-22-18-22l-158 0c-9 0-18 10-18 22 0 12 9 22 18 22l157 0c10 0 19-10 19-22m-92 490l-10 0c-45 0-82-42-82-94l0-292c0-52 37-94 82-94l10 0c46 0 83 42 83 94l0 292c-1 52-38 94-83 94z m-5-67c7 0 13-6 13-13 0-8-6-14-13-14-8 0-14 6-14 14 0 7 7 13 14 13z m0-55c7 0 13-7 13-14 0-7-6-13-13-13-8 0-14 6-14 13 0 7 7 14 14 14z m0-56c7 0 13-6 13-13 0-8-6-13-13-13-8 0-14 6-14 13 0 7 7 13 14 13z m0-55c7 0 13-6 13-13 0-8-6-14-13-14-8 0-14 7-14 14 0 7 7 13 14 13z m0-188c-33 0-59 27-59 59 0 33 26 59 59 59 33 0 59-27 59-59 0-33-26-59-59-59z m45 59c0-25-20-45-45-45-25 0-45 20-45 45 0 25 20 45 45 45 25 0 45-20 45-45z"/>
<glyph glyph-name="search-1" unicode="&#57349;" d="M498 81l-116 116c48 80 35 183-31 250-39 38-90 60-145 60-54 0-106-22-145-60-38-39-59-90-59-145 0-54 21-106 59-144 39-39 90-60 145-60 40 0 80 13 113 35l115-116c8-7 18-11 28-11 11 0 21 4 28 11l7 7c8 8 12 18 12 29 1 10-3 20-11 28z m-207 136c-23-23-53-35-85-35-32 0-62 13-85 35-23 23-35 53-35 85 0 33 13 63 35 86 23 23 53 35 85 35 32 0 62-13 85-35 23-23 36-53 36-86 0-32-13-62-36-85z"/>
<glyph glyph-name="send" unicode="&#57350;" d="M3 93c-7-23 6-35 28-26l464 176c23 9 23 23 0 31l-465 171c-22 8-35-3-28-26l26-81c7-23 32-44 56-48l188-25c24-3 24-8 0-11l-187-23c-24-3-49-25-55-48z"/>
<glyph glyph-name="settings" unicode="&#57351;" d="M353 320l-39 5c-4 14-9 27-17 40l24 31c3 4 3 11-1 15l-21 21c-2 2-4 3-7 3-3 0-6-1-8-2l-32-24c-12 8-25 13-39 16l-6 39c0 6-6 10-11 10l-29 0c-6 0-11-4-12-10l-5-39c-14-3-27-9-40-16l-21 16-10 8c-4 3-11 3-15-1l-21-21c-4-4-4-11-1-15l24-31c-8-13-13-26-16-40l-39-5c-6-1-10-7-10-12l0-29c0-5 4-10 10-12l39-5c3-14 9-27 16-39l-24-32c-3-4-3-11 1-15l21-20c2-2 4-3 8-3 3 0 5 0 8 2l31 23c12-8 25-13 40-16l5-39c0-6 6-10 12-10l28 0c6 0 11 4 12 10l5 39c14 3 28 9 40 16l21-16 10-8c5-4 11-3 15 1l21 21c4 4 4 11 1 15l-24 31c8 12 14 26 17 40l39 5c5 1 10 6 10 12l0 28c0 6-5 12-10 13z m-179-97c-36 4-64 34-64 71 0 39 32 71 71 71 3 0 5 0 8-1 35-4 63-34 63-70 0-40-31-71-71-71-2 0-4 0-7 0z m333-89l-18 3c-2 6-4 12-8 19l12 14c1 2 1 6-1 8l-10 9c-1 1-2 2-3 2-2 0-3 0-4-1l-15-11c-5 3-11 6-18 7l-3 18c0 2-2 5-5 5l-13 0c-3 0-5-2-6-5l-2-18c-7-2-13-4-19-8l-9 8-5 3c-2 2-5 2-7 0l-10-10c-2-2-2-5-1-7l12-15c-4-6-7-12-8-19l-19-2c-2 0-4-3-4-5l0-14c0-2 2-5 4-5l19-3c1-7 4-13 8-19l-12-15c-1-2-1-5 1-7l10-10c1-1 2-1 3-1 2 0 3 0 4 1l14 11c6-3 12-6 19-7l2-19c1-2 3-4 6-4l13 0c3 0 5 2 6 4l3 19c6 1 12 4 18 7l10-7 4-4c2-2 6-2 7 0l10 10c2 2 2 5 1 7l-12 15c4 6 6 12 8 19l18 3c3 0 5 2 5 5l0 14c0 2-2 5-5 5z m-83-45c-17 1-30 15-30 33 0 18 15 33 34 33 1 0 2 0 3 0 17-1 29-16 29-33 0-19-14-33-33-33-1 0-2 0-3 0z"/>
<glyph glyph-name="share" unicode="&#57352;" d="M442 177c-34 17-73 11-101-12l-137 78c2 8 2 18 0 27l137 77c24-20 57-28 88-17 49 17 76 69 59 119-16 48-69 74-118 58-43-15-69-58-62-102l-137-77c-36 31-91 29-125-6-37-37-37-95 0-132 35-35 89-36 125-6l137-77c-6-39 13-79 50-97 47-23 102-4 126 42 23 46 4 102-42 125z"/>
<glyph glyph-name="star" unicode="&#57353;" d="M486 278l-115-83 44-136c15-46-4-60-43-32l-116 84-116-84c-38-29-58-14-43 31l44 137-115 83c-39 28-32 52 16 52l143 0 44 135c15 46 39 46 54 0l44-135 143 0c47 0 55-24 16-52"/>
<glyph glyph-name="stop" unicode="&#57354;" d="M42 512c-23 0-42-18-42-40l0-432c0-22 19-40 42-40l429 0c23 0 42 18 42 40l0 432c0 22-19 40-42 40z"/>
<glyph glyph-name="switch" unicode="&#57355;" d="M390 313c-6-3-9-8-9-14l0-53-101 0c-15-1-28-14-28-30l0-45c0-15 13-28 28-29l101 0 0-53c0-6 3-12 9-14 6-3 14-2 19 2l94 94c13 13 13 33 0 46l-94 93c-5 5-13 6-19 3z m-268-174l-94 94c-9 9-14 21-14 33 0 12 5 24 14 33l112 112 2-9c1 0 1 0 1 0 5 0 9-1 14-3 10-5 17-15 17-27l0-40 88 0c23-1 40-21 40-44l0-28-24 0c-23-2-41-21-41-44l0-16-63 0 0-39c0-12-7-22-17-27-5-2-9-3-14-3 0 0-1 0-1 0l-3-9z m21 248c3 0 5 0 7-1 6-3 10-9 10-14l0-53 101 0c15-2 27-15 27-30l0-14-11 0c-30-2-53-28-53-58l0-3-64 0 0-53c0-5-3-11-9-14-2-1-5-1-7-1-5 0-9 2-12 4l-94 93c-13 13-13 33 0 46l94 94c3 2 7 4 11 4m6 53l-37-37-94-94c-12-11-18-27-18-43 0-16 6-31 18-43l94-94 36-36 5 24c4 1 7 2 9 4 16 7 26 22 26 39l0 25 63 0 0 31c0 15 12 29 28 29l38 0 0 43c0 31-24 56-54 58l-75 0 0 25c0 17-10 32-25 39-3 2-6 3-9 3z"/>
<glyph glyph-name="sync" unicode="&#57356;" d="M509 472c0 7-4 13-10 15-6 2-12 0-16-4l-48-47c-21 22-47 40-76 53-62 28-131 30-195 6-64-25-115-73-143-135-8-18 0-39 18-47 18-8 39 0 47 18 20 45 56 79 103 97 46 18 96 16 141-4 21-9 40-22 55-38l-10-11-36-36c-4-4-6-10-4-16 2-7 8-11 15-11l128 0c17 0 31 14 31 31z m-37-273c-17 9-39 0-46-17-20-45-57-80-103-98-46-17-96-16-142 4-20 10-39 23-55 38l47 48c4 4 6 10 4 16-2 6-8 10-15 10l-128 0c-17 0-31-14-31-31l0-129c0-7 4-13 10-15 6-2 12 0 16 4l48 47c21-22 47-40 76-52 34-15 69-23 105-23 30 0 61 6 91 18 64 24 114 71 142 134 7 18 0 38-19 46z"/>
<glyph glyph-name="technician" unicode="&#57357;" d="M256 291c59 0 108 49 108 110 0 61-48 111-108 111-60 0-108-50-108-111 0-61 48-110 108-110m126-5l-37 9c-24-21-55-33-89-34-35 0-65 13-89 34l-37-9c-40-12-52-28-49-49l29-188c4-29 22-49 49-49l194 0c27 0 45 20 49 49l30 188c2 21-10 37-50 49m-119-159l-61 61-1 12-34 24-12-12 24-34 12-1 61-61c-9-17 4-29 4-29 0 0 29-30 44-45 15-15 34 3 34 3 0 0 18 19 3 34-15 15-44 44-44 44 0 0-13 13-30 4m-28-14l-22 21c0 0 0 1 0 1l-56-56c-9-10-9-25 0-34 10-10 26-10 35 0l45 45c-2 6-4 14-2 23m-61-60c-4 0-7 3-7 7 0 5 3 8 7 8 4 0 8-3 8-8 0-3-4-7-8-7m179 156c0 0-30-30-35-35l-26 5-5 26c5 5 35 35 35 35 0 0-28 14-55-13-27-27 0-39-19-58l-3-3c0 0 21-22 21-22 7 1 17 2 25-2 15 6 26-11 49 13 27 26 13 54 13 54"/>
<glyph glyph-name="technology-1" unicode="&#57358;" d="M386 356c0 15-11 26-25 26l-204 0c-15 0-26-11-26-26l0-204c0-14 11-25 26-25l204 0c14 0 25 11 25 25z m111-76c8 0 15 6 15 15 0 9-7 15-15 15l-35 0 0 51 35 0c8 0 15 7 15 16 0 8-7 15-15 15l-35 0 0 17c0 28-25 49-53 49l-18 0 0 39c0 8-7 15-15 15-9 0-16-7-16-15l0-39-51 0 0 39c0 8-6 15-15 15-9 0-15-7-15-15l0-39-46 0 0 39c0 8-7 15-16 15-8 0-15-7-15-15l0-39-51 0 0 39c0 8-7 15-15 15-9 0-16-7-16-15l0-39-17 0c-28 0-49-21-49-49l0-17-39 0c-8 0-15-7-15-15 0-9 7-16 15-16l40 0 0-51-40 0c-8 0-15-6-15-15 0-9 7-15 15-15l40 0 0-51-40 0c-8 0-15-7-15-16 0-8 7-15 15-15l40 0 0-46-40 0c-8 0-15-7-15-15 0-9 7-16 15-16l40 0 0-18c0-28 20-53 48-53l18 0 0-35c0-8 7-15 15-15 9 0 16 7 16 15l0 35 51 0 0-35c0-8 6-15 15-15 9 0 15 7 15 15l0 35 46 0 0-35c0-8 7-15 16-15 8 0 15 7 15 15l0 35 51 0 0-35c0-8 7-15 15-15 9 0 16 7 16 15l0 35 17 0c28 0 54 25 54 53l0 18 34 0c9 0 16 7 16 16 0 8-7 15-16 15l-34 0 0 46 34 0c9 0 16 7 16 15 0 9-7 16-16 16l-34 0 0 51z m-65-179c0-11-9-20-20-20l-306 0c-12 0-21 9-21 20l0 306c0 12 9 21 21 21l306 0c11 0 20-9 20-21z"/>
<glyph glyph-name="thumbs-down" unicode="&#57359;" d="M413 217c-13 0-23 10-23 23l0 190c0 13 10 23 23 23l75 0c12 0 23-10 23-23l0-190c0-13-11-23-23-23z m-412 13c0-20 16-37 37-37l166 0 0-137c0-20 16-37 37-37 21 0 38 16 38 37l0 9c0 46 16 121 52 144 15 10 25 27 25 46l0 185c0 4-1 7-2 11-4 22-23 39-45 42-2 0-4 0-6 0l-189 0c-20 0-37-17-37-38 0-20 17-38 38-38l-26 0c-20 0-37-16-37-37 0-21 16-38 37-38l-37 0c-20 0-37-16-37-37 0-21 16-38 37-38l-14 0c-21 1-37-15-37-37z"/>
<glyph glyph-name="thumbs-up" unicode="&#57360;" d="M99 295c13 0 23-10 23-23l0-190c0-13-10-23-23-23l-75 0c-13 0-23 10-23 23l0 189c0 13 10 23 23 23l75 0z m412-14c0 20-16 38-37 38l-166 0 0 136c0 21-16 38-37 38-21 0-38-17-38-38l0-9c0-46-16-121-53-144-15-10-24-27-24-45l0-185c0-4 0-7 1-11 5-22 23-39 45-42 2 0 195 0 195 0 20 0 38 16 38 37 0 21-17 38-38 38l26 0c20 0 37 16 37 38 0 20-16 37-37 37l36 0c20 0 38 17 38 38 0 20-17 38-38 38l15 0c21-1 37 15 37 36z"/>
<glyph glyph-name="tools-1" unicode="&#57361;" d="M274 230l-153 152-3 31-87 59-28-28 59-86 31-4 153-152c-22-42 9-74 9-74 0 0 74-74 111-111 38-38 85 8 85 8 0 0 45 47 8 84-38 37-111 112-111 112 0 0-32 31-74 9z m-57-37l-55 54c0 1 0 1-1 1l-139-139c-24-24-24-63 1-86 23-24 62-24 86-1l115 114c-8 16-12 35-7 57z m-153-148c-10 0-19 8-19 19 0 10 8 18 19 18 10 0 18-8 18-18 0-11-8-19-18-19z m435 378c0 0-74-75-87-87l-65 12-13 65c13 13 87 87 87 87 0 0-69 36-138-32-68-68 1-98-47-146l-7-8c0-1 54-54 54-54 16 4 41 6 61-6 38 16 65-27 123 31 69 68 32 138 32 138z"/>
<glyph glyph-name="touch-screen" unicode="&#57362;" d="M367 59l-93 0c-6 0-11-5-11-11l0-21c0-6 5-11 11-11l93 0c6 0 11 5 11 11l0 21c0 6-5 11-11 11z m27 139c0 0-1 1-1 1 0 1 0 1-1 1 0 1-1 1-1 1 0 1-1 1-1 1 0 1-1 1-1 1-1 1-1 1-2 1 0 0-1 1-1 1-1 0-2 0-3 0 0 0 0 0-1 1-1 0-2 0-3 0-1 0-3 0-4 0 0 0 0 0-1-1 0 0-1 0-2 0 0 0-1-1-1-1-1 0-1 0-2-1 0 0-1 0-1-1-1 0-1 0-1-1-1 0-1-1-1-1-1 0-1 0-1-1-1 0-1-1-1-1 0 0 0-1-1-1-2-2-3-6-3-9l0 12c0 10-8 19-18 19-10 0-18-9-18-19l0 18c0 10-9 19-19 19-10 0-18-9-18-19l0 85c0 10-8 18-19 18-10 0-18-8-18-18l0-159c0-1 0-4-1-8 0-14 1-41 9-54 5-7 13-12 22-12l90 0c2 0 4 0 5 1 11 2 19 11 20 22 0 1 0 2 0 3l0 92c2 3 1 6-1 10 1-1 0-1 0 0z m21 237c0 0-1 1-1 2-1 2-3 3-6 3l-344 0c-4 0-7-3-7-7l0-234c0-1 0-1 0-1 0 0 0 0 0-1 0 0 0-1 0-2 1-2 4-4 6-4l162 0 0 112c0 24 20 44 44 44 24 0 44-20 44-44l0-42c12-2 22-8 29-17 0 0 1 0 1 0 12 0 23-5 30-13 2 0 4 0 6 0 15 0 28-7 36-19l0 221c0 1 0 1 0 2 0-1 0 0 0 0z m57-119c0-9-7-17-17-17-9 0-17 8-17 17 0 9 8 17 17 17 10 0 17-8 17-17z m5 180l-442 0c-19 0-35-16-35-35l0-290c0-19 16-35 35-35l190 0c0 4 1 7 1 9l0 19-191 0c-4 0-7 3-7 7l0 290c0 4 3 7 7 7l442 0c4 0 7-3 7-7l0-290c0-4-3-7-7-7l-54 0 0-28 54 0c20 0 35 16 35 34l0 291c0 19-16 35-35 35z"/>
<glyph glyph-name="truck" unicode="&#57363;" d="M405 156c-23 0-40-18-40-40 0-23 18-40 40-40 22 0 40 17 40 40l0 1c0 21-17 39-40 39z m-298 0c-23 0-40-18-40-40 0-23 18-40 40-40 22 0 40 17 40 40l0 1c1 21-17 39-40 39z m396-12l0 78-8 29-3 12-19 68-1 3-1 3c-1 2-1 3-2 4-1 3-3 5-4 7-5 8-12 14-20 14l-101 0 0 50c0 14-11 25-25 25l-286 0c-14 0-24-11-24-25l0-268c-5-2-9-8-9-13 0-8 7-15 15-15l34 0c0 32 26 58 58 58 32 0 58-26 58-58l182 0c0 32 26 58 57 58 33 0 58-26 58-58l35 0c8 0 14 7 14 15 1 5-3 11-8 13z m-63 107l-74 0 0 87 74 0 1-3 6-18 14-45 2-7 2-8 2-6z"/>
<glyph glyph-name="unlock" unicode="&#57364;" d="M445 259c0 13-5 18-19 19l-251 0 0 34c0 28-1 61 2 81 5 41 46 68 89 65 39-3 73-37 75-78 0-3 0-8 0-12l51 0c-1 12-1 26-4 38-14 67-74 110-144 105-63-4-117-56-123-122-2-28 0-82 0-112-13 0-24 0-34 0-15 0-20-5-20-20 0-79 0-158 0-237 0-15 5-19 20-19 113 0 226 0 339 0 14 0 19 5 19 18 0 80 0 160 0 240z"/>
<glyph glyph-name="upload" unicode="&#57365;" d="M54 222c4-10 14-16 24-16l90 0 0-159c2-26 24-47 50-47l76 0c26 0 48 21 50 47l0 159 89 0c10 0 20 6 24 16 5 10 3 23-5 31l-157 158c-22 22-56 22-78 0l-158-158c-8-8-10-21-5-31z m23 290l358 0c15 0 26-12 26-26 0-14-11-25-26-25l-358 0c-15 0-26 11-26 25 0 14 11 26 26 26z"/>
<glyph glyph-name="user" unicode="&#57366;" d="M256 291c59 0 108 49 108 110 0 61-48 111-108 111-60 0-108-50-108-111 0-61 48-110 108-110z m126-5l-37 9c-24-21-55-33-89-34-35 0-65 13-89 34l-37-9c-40-12-52-28-49-49l29-188c4-29 22-49 49-49l194 0c27 0 45 20 49 49l30 188c2 21-10 37-50 49z"/>
<glyph glyph-name="vv-carbattery" unicode="&#57367;" d="M485 365l-458 0c-15 0-26-11-26-25l0-46c0-14 11-25 26-25l0 0 0-188c0-14 11-25 25-25l408 0c14 0 25 11 25 25l0 188 0 0c15 0 26 11 26 25l0 46c0 14-11 25-26 25z m-380 31l64 0c8 0 15 7 15 15l0 30c0 8-7 15-15 15l-64 0c-8 0-15-7-15-15l0-30c0-9 6-15 15-15z m238 0l64 0c9 0 15 7 15 15l0 30c0 8-6 15-15 15l-64 0c-9 0-15-7-15-15l0-30c0-9 7-15 15-15z"/>
<glyph glyph-name="vv-incidentalert" unicode="&#57368;" d="M256 453c6 0 10 4 10 10l0 21c0 5-4 10-10 10-6 0-10-5-10-10l0-21c0-6 4-10 10-10z m-87-45l21-3c0 0 1 0 1 0 6 0 10 3 11 8 1 6-3 11-9 12l-20 3c-6 1-11-3-12-8-1-6 3-11 8-12z m38 35c2-2 5-3 8-3 2 0 4 1 6 2 4 4 5 10 2 14l-14 16c-3 4-10 5-14 2-4-4-5-10-1-14z m295-180l-45 0-35 88c-4 11-10 25-30 30 0 0-37 11-95 16l-3 14c-3 14-20 24-38 24-18 0-35-10-38-24-1-5-2-10-3-14-64-5-102-16-102-16-18-6-23-12-31-30l-33-88-40 0c-5 0-9-4-9-9l0-26c0-6 4-10 9-10l25 0-15-107 0-83c0-5 5-10 11-10l64 0c6 0 10 5 10 10l0 32 305 0 0-32c0-5 5-10 10-10l65 0c5 0 10 5 10 10l0 78c0 1 0 1 0 2l0 8-20 102 30 0c5 0 10 4 10 10l0 25c-2 6-6 10-12 10z m-391-113c-19 0-34 15-34 34 0 18 15 33 34 33 18 0 33-15 33-33 0-19-14-34-33-34z m143 113l-163 0 30 76c3 8 4 9 8 10 0 0 51 15 125 15 0 0 0 0 1 0 0 0 1 0 1 0 73 0 125-15 125-15 4-1 5-2 8-10l30-76z m163-116c-19 0-34 16-34 34 0 18 15 34 34 34 18 0 34-16 34-34 0-18-16-34-34-34z m-105 266c0-5 5-8 10-8 1 0 1 0 2 0l20 3c6 1 10 6 9 12-1 5-6 9-12 8l-20-3c-6-1-10-6-9-12z m-14 26c4 0 6 1 8 4l13 15c4 5 4 11-1 15-4 4-11 3-14-1l-14-16c-3-4-3-11 2-14 2-2 4-3 6-3z"/>
<glyph glyph-name="watch-1" unicode="&#57369;" d="M259 437c47 0 86-18 122-47l0 71c0 28-24 51-52 51l-147 0c-28 0-50-23-50-51l0-76c31 33 77 52 127 52z m0-358c-50 0-96 20-127 53l0-76c0-28 22-55 49-55l147 0c28 0 52 27 52 55l0 71c-35-30-74-48-121-48z m-3 343c-91 0-164-73-164-164 0-91 73-164 164-164 91 0 164 73 164 164 0 91-73 164-164 164z m0-297c-74 0-134 60-134 133 0 74 60 134 134 134 74 0 134-60 134-134 0-73-60-133-134-133z m0 117l-61 0c-8 0-15 6-15 15 0 9 7 15 15 15l46 0 0 81c0 9 6 16 15 16 9 0 15-7 15-16l0-96c0-8-6-15-15-15z"/>
<glyph glyph-name="wifi" unicode="&#57370;" d="M262 64c-3 0-6 0-9 0-21 5-36 18-36 42 0 34 33 52 59 38 7-3 14-10 18-18 14-28-7-59-32-62z m110 104c-9-9-24-9-33 0-46 48-120 48-166 0-10-9-25-9-34 0-9 10-9 25 0 35 64 66 169 66 233 0 9-10 9-25 0-35z m67 69c-9-9-24-9-33 0-83 86-217 86-300 0-9-9-24-9-33 0-9 10-9 25 0 35 101 104 265 104 366 0 9-10 9-25 0-35z m66 69c-9-9-24-9-33 0-119 124-312 124-432 0-9-9-24-9-33 0-9 9-9 25 0 34 137 144 361 144 498 0 9-9 9-24 0-34z"/>
<glyph glyph-name="wishlist" unicode="&#57371;" d="M512 333c0 77-62 140-140 140-48 0-91-25-116-62-25 37-68 62-116 62-78 0-140-63-140-140 0-20 4-38 11-54 3-8 6-14 11-21 53-110 234-219 234-219 0 0 182 109 234 219 5 7 8 13 11 21 7 16 11 34 11 54z"/>
<glyph glyph-name="zoom-in" unicode="&#57372;" d="M264 318l-40 0 0 40c0 9-7 16-16 16-9 0-17-7-17-16l0-40-40 0c-9 0-16-7-16-17 0-9 7-16 16-16l40 0 0-40c0-9 8-17 17-17 9 0 16 8 16 17l0 40 40 0c10 0 17 7 17 16 0 10-7 17-17 17z m234-237l-116 116c48 80 35 183-31 250-39 38-90 60-145 60-54 0-106-22-145-60-38-39-59-90-59-145 0-54 21-106 59-144 39-39 90-60 145-60 40 0 80 13 113 35l115-116c8-7 18-11 28-11 11 0 21 4 28 11l7 7c8 8 12 18 12 29 1 10-3 20-11 28z m-207 136c-23-23-53-35-85-35-32 0-62 13-85 35-23 23-35 53-35 85 0 33 13 63 35 86 23 23 53 35 85 35 32 0 62-13 85-35 23-23 36-53 36-86 0-32-13-62-36-85z"/>
<glyph glyph-name="zoom-out" unicode="&#57373;" d="M263 317l-113 0c-10 0-19-8-19-19 0-10 8-19 19-19l113 0c10 0 19 8 19 19 0 10-9 19-19 19z m235-236l-116 116c48 80 35 183-31 250-39 38-90 60-145 60-54 0-106-22-145-60-38-39-59-90-59-145 0-54 21-106 59-144 39-39 90-60 145-60 40 0 80 13 113 35l115-116c8-7 18-11 28-11 11 0 21 4 28 11l7 7c8 8 12 18 12 29 1 10-3 20-11 28z m-207 136c-23-23-53-35-85-35-32 0-62 13-85 35-23 23-35 53-35 85 0 33 13 63 35 86 23 23 53 35 85 35 32 0 62-13 85-35 23-23 36-53 36-86 0-32-13-62-36-85z"/>
</font>
</defs>
</svg>
